<svg width="38" height="38" viewBox="0 0 38 38" fill="none" xmlns="http://www.w3.org/2000/svg">
<path d="M37.9813 8.6386C37.9652 7.82337 37.8995 7.00987 37.7847 6.20261C37.6484 5.48548 37.4169 4.78978 37.0963 4.13398C36.3931 2.74426 35.2651 1.615 33.8761 0.910347C33.2242 0.5906 32.5325 0.359212 31.8194 0.2223C31.0061 0.105127 30.1862 0.0382083 29.3646 0.0219259C29.016 0.00927188 28.5649 0.00302103 28.3568 0.00302103L9.64611 0C9.43876 0 8.98755 0.00627 8.6386 0.018677C7.82336 0.034697 7.00986 0.100375 6.20261 0.215346C5.48548 0.351598 4.78978 0.583071 4.13398 0.903621C2.74428 1.60691 1.61501 2.73496 0.910214 4.12389C0.590565 4.77586 0.359187 5.4675 0.222186 6.18057C0.105112 6.99395 0.0381876 7.81377 0.0217932 8.63537C0.00938615 8.98396 0.00302103 9.43508 0.00302103 9.64313L0 28.3539C0 28.5611 0.00627 29.0123 0.018677 29.3614C0.034697 30.1766 0.100375 30.9901 0.215346 31.7974C0.351614 32.5145 0.583088 33.2102 0.903621 33.866C1.60687 35.2557 2.73488 36.3849 4.12378 37.0897C4.77579 37.4093 5.46747 37.6407 6.18057 37.7777C6.99394 37.8949 7.81376 37.9618 8.63537 37.9781C8.98385 37.9906 9.43508 37.997 9.64313 37.997L28.3539 38C28.5611 38 29.0124 37.9937 29.3613 37.9813C30.1766 37.9652 30.9901 37.8996 31.7974 37.7847C32.5145 37.6483 33.2101 37.4168 33.8659 37.0964C35.2556 36.3931 36.3849 35.265 37.0897 33.8761C37.4093 33.2242 37.6407 32.5325 37.7777 31.8194C37.8949 31.0061 37.9618 30.1862 37.9782 29.3646C37.9907 29.016 37.997 28.5649 37.997 28.3569L38 9.64611C38 9.43888 37.9937 8.98755 37.9813 8.6386ZM19.4118 32.2173H19.4062C17.1447 32.2172 14.9193 31.6505 12.9331 30.5692L5.75242 32.4521L7.6741 25.4351C6.18531 22.8519 5.59035 19.8496 5.98148 16.8939C6.3726 13.9381 7.72796 11.1939 9.8374 9.08681C11.9468 6.97971 14.6925 5.62742 17.6487 5.23958C20.6049 4.85175 23.6065 5.45005 26.1881 6.94172C28.7697 8.43338 30.787 10.7351 31.9273 13.4899C33.0677 16.2448 33.2672 19.2989 32.4952 22.1788C31.7231 25.0586 30.0225 27.6033 27.657 29.4183C25.2915 31.2332 22.3933 32.2171 19.4118 32.2173Z" fill="#3D3D3D"/>
<path d="M19.4162 7.41211C17.4043 7.41164 15.4291 7.95016 13.696 8.97167C11.9628 9.99318 10.5349 11.4604 9.56088 13.2207C8.58684 14.981 8.10218 16.9701 8.15731 18.9811C8.21244 20.9922 8.80534 22.9517 9.87436 24.656L10.1421 25.0819L9.00475 29.235L13.2657 28.1175L13.6769 28.3615C15.4117 29.3887 17.3909 29.9306 19.4071 29.9303H19.4116C22.3952 29.9271 25.2556 28.7398 27.3644 26.6291C29.4732 24.5185 30.658 21.6571 30.6586 18.6735C30.6592 15.6899 29.4755 12.828 27.3676 10.7165C25.2596 8.60503 22.3998 7.41654 19.4162 7.41211ZM26.0384 23.5051C25.7892 23.9164 25.4576 24.2716 25.0645 24.5485C24.6713 24.8254 24.2251 25.0179 23.7539 25.1139C23.0426 25.2356 22.3126 25.1898 21.6221 24.98C20.9669 24.7764 20.3228 24.5385 19.6926 24.2671C17.3551 23.0941 15.3627 21.3336 13.9109 19.1582C13.1194 18.1509 12.6391 16.9345 12.529 15.6581C12.5196 15.1312 12.62 14.608 12.824 14.122C13.028 13.6361 13.3309 13.1979 13.7136 12.8355C13.8267 12.7065 13.9652 12.6023 14.1205 12.5294C14.2759 12.4565 14.4446 12.4166 14.6161 12.4121C14.8416 12.4121 15.0675 12.4142 15.2647 12.424C15.4725 12.4343 15.7515 12.3451 16.0262 13.0049C16.3082 13.6823 16.9851 15.3476 17.0697 15.517C17.1233 15.6056 17.154 15.7063 17.1589 15.8098C17.1639 15.9133 17.1429 16.0164 17.098 16.1098C17.0127 16.3131 16.8987 16.5033 16.7595 16.6743C16.5903 16.8719 16.404 17.1154 16.2519 17.2671C16.0823 17.4358 15.9059 17.6189 16.1033 17.9576C16.6117 18.8276 17.2462 19.6175 17.9862 20.3015C18.789 21.0153 19.71 21.5836 20.708 21.9809C21.0464 22.1504 21.2438 22.1221 21.4412 21.8963C21.6387 21.6705 22.2873 20.9083 22.5128 20.5696C22.7383 20.231 22.9641 20.2873 23.2742 20.4003C23.5844 20.5133 25.2486 21.3317 25.5871 21.5011C25.9256 21.6704 26.1511 21.7551 26.2357 21.8963C26.3284 22.4404 26.2599 22.9995 26.0384 23.5051Z" fill="#3D3D3D"/>
</svg>
