<svg width="38" height="38" viewBox="0 0 38 38" fill="none" xmlns="http://www.w3.org/2000/svg">
<path d="M38 26.961C38 33.877 33.877 38 26.961 38H24.7C23.655 38 22.8 37.145 22.8 36.1V25.137C22.8 24.624 23.218 24.187 23.731 24.187L27.075 24.13C27.341 24.111 27.569 23.921 27.626 23.655L28.291 20.026C28.348 19.684 28.082 19.361 27.721 19.361L23.674 19.418C23.142 19.418 22.724 19 22.705 18.487L22.629 13.832C22.629 13.528 22.876 13.262 23.199 13.262L27.759 13.186C28.082 13.186 28.329 12.939 28.329 12.616L28.253 8.05598C28.253 7.73298 28.006 7.486 27.683 7.486L22.553 7.56202C19.399 7.61902 16.891 10.203 16.948 13.357L17.043 18.582C17.062 19.114 16.644 19.532 16.112 19.551L13.832 19.589C13.509 19.589 13.262 19.836 13.262 20.159L13.319 23.769C13.319 24.092 13.566 24.339 13.889 24.339L16.169 24.301C16.701 24.301 17.119 24.719 17.138 25.232L17.309 36.062C17.328 37.126 16.473 38 15.409 38H11.039C4.123 38 0 33.877 0 26.942V11.039C0 4.123 4.123 0 11.039 0H26.961C33.877 0 38 4.123 38 11.039V26.961Z" fill="#3D3D3D"/>
</svg>
