<svg width="40" height="37" viewBox="0 0 40 37" fill="none" xmlns="http://www.w3.org/2000/svg">
<path d="M39.165 5.70485C38.6898 3.4729 37.3744 1.72241 35.6802 1.10362C32.5604 5.27603e-05 20.0191 5.30271e-05 20.0191 5.30271e-05C20.0191 5.30271e-05 7.50151 -0.0264197 4.3493 1.10362C2.66378 1.72407 1.34212 3.4729 0.871979 5.70485C0.280547 9.93547 -0.0132928 14.2174 0.000461381 18.5191C-0.00579054 22.7928 0.286799 27.0681 0.871979 31.2722C1.34212 33.5042 2.66378 35.2547 4.3493 35.8834C7.469 36.9869 20.0191 36.9869 20.0191 36.9869C20.0191 36.9869 32.5292 36.9869 35.6802 35.8834C37.3744 35.2547 38.6898 33.5058 39.165 31.2722C39.7389 27.0681 40.019 22.7928 39.999 18.5191C40.019 14.2174 39.7452 9.93547 39.165 5.70485ZM16.0129 26.4394V10.5642L26.4523 18.5191L16.0129 26.4394Z" fill="#3D3D3D"/>
</svg>
