<svg width="38" height="38" viewBox="0 0 38 38" fill="none" xmlns="http://www.w3.org/2000/svg">
<path d="M19 14.4756C18.1052 14.476 17.2307 14.7416 16.4869 15.2389C15.743 15.7363 15.1634 16.443 14.8212 17.2698C14.4791 18.0965 14.3897 19.0062 14.5645 19.8837C14.7392 20.7612 15.1703 21.5672 15.8031 22.1998C16.4359 22.8324 17.2421 23.2631 18.1197 23.4376C18.9973 23.612 19.9069 23.5223 20.7335 23.1798C21.5601 22.8373 22.2666 22.2574 22.7637 21.5134C23.2608 20.7694 23.5261 19.8948 23.5261 19C23.5252 17.8 23.048 16.6495 22.1993 15.8012C21.3507 14.9528 20.2 14.4761 19 14.4756ZM29.5781 10.9979C29.3478 10.4142 28.9999 9.88409 28.5562 9.44038C28.1125 8.99666 27.5824 8.64885 26.9987 8.41853C25.2174 7.71536 20.9763 7.87312 19 7.87312C17.0237 7.87312 12.7868 7.70942 11.0005 8.41853C10.4168 8.64885 9.88663 8.99666 9.44292 9.44038C8.99921 9.88409 8.6514 10.4142 8.42107 10.9979C7.71875 12.7792 7.87567 17.0245 7.87567 18.9992C7.87567 20.9738 7.71875 25.214 8.42446 27.0012C8.65479 27.5849 9.0026 28.1151 9.44631 28.5588C9.89003 29.0025 10.4202 29.3503 11.0039 29.5806C12.7851 30.2838 17.0262 30.126 19.0034 30.126C20.9806 30.126 25.2157 30.2897 27.0021 29.5806C27.5858 29.3503 28.1159 29.0025 28.5596 28.5588C29.0033 28.1151 29.3511 27.5849 29.5815 27.0012C30.2897 25.22 30.1269 20.9746 30.1269 19C30.1269 17.0254 30.2897 12.786 29.5815 10.9988L29.5781 10.9979ZM19 25.9554C17.6244 25.9554 16.2796 25.5474 15.1358 24.7832C13.992 24.0189 13.1005 22.9326 12.5741 21.6617C12.0477 20.3908 11.9099 18.9923 12.1783 17.6431C12.4467 16.2939 13.1091 15.0545 14.0818 14.0818C15.0545 13.1091 16.2939 12.4467 17.6431 12.1783C18.9923 11.9099 20.3908 12.0477 21.6617 12.5741C22.9326 13.1005 24.0189 13.992 24.7832 15.1358C25.5474 16.2796 25.9554 17.6244 25.9554 19C25.9565 19.9137 25.7773 20.8187 25.4282 21.663C25.079 22.5074 24.5668 23.2746 23.9207 23.9207C23.2746 24.5668 22.5074 25.079 21.663 25.4282C20.8187 25.7773 19.9137 25.9565 19 25.9554ZM26.2421 13.3763C25.9209 13.3765 25.607 13.2814 25.3399 13.1031C25.0728 12.9249 24.8646 12.6714 24.7415 12.3747C24.6185 12.0781 24.5863 11.7516 24.6488 11.4367C24.7114 11.1217 24.8659 10.8323 25.0929 10.6052C25.3199 10.378 25.6092 10.2233 25.9242 10.1606C26.2391 10.0979 26.5656 10.13 26.8623 10.2529C27.159 10.3757 27.4126 10.5838 27.591 10.8508C27.7694 11.1178 27.8647 11.4317 27.8647 11.7529C27.8656 11.9661 27.8244 12.1774 27.7434 12.3747C27.6624 12.572 27.5433 12.7514 27.3929 12.9025C27.2424 13.0537 27.0636 13.1736 26.8667 13.2555C26.6698 13.3374 26.4587 13.3796 26.2454 13.3797L26.2421 13.3763ZM33.9286 0H4.07143C2.99162 0 1.95603 0.428953 1.19249 1.19249C0.428953 1.95603 0 2.99162 0 4.07143L0 33.9286C0 35.0084 0.428953 36.044 1.19249 36.8075C1.95603 37.571 2.99162 38 4.07143 38H33.9286C35.0084 38 36.044 37.571 36.8075 36.8075C37.571 36.044 38 35.0084 38 33.9286V4.07143C38 2.99162 37.571 1.95603 36.8075 1.19249C36.044 0.428953 35.0084 0 33.9286 0ZM32.4764 24.5982C32.367 26.7722 31.8708 28.6985 30.2838 30.2812C28.6968 31.864 26.7722 32.3704 24.6008 32.4739C22.3606 32.6003 15.6445 32.6003 13.4043 32.4739C11.2304 32.3645 9.31085 31.8674 7.72129 30.2812C6.13174 28.6951 5.63214 26.7679 5.52866 24.5982C5.40228 22.3572 5.40228 15.6402 5.52866 13.4018C5.63808 11.2278 6.12835 9.30152 7.72129 7.71875C9.31424 6.13598 11.2388 5.63554 13.4043 5.53205C15.6445 5.40567 22.3606 5.40567 24.6008 5.53205C26.7747 5.64147 28.7002 6.13853 30.2838 7.72469C31.8674 9.31085 32.3729 11.238 32.4764 13.412C32.6028 15.6445 32.6028 22.3555 32.4764 24.5982Z" fill="#3D3D3D"/>
</svg>
