<svg width="38" height="38" viewBox="0 0 38 38" fill="none" xmlns="http://www.w3.org/2000/svg">
<path d="M35.1854 0H2.80514C1.25664 0 0 1.22708 0 2.73811V35.2582C0 36.7713 1.25664 38 2.80514 38H35.1854C36.7349 38 38 36.7713 38 35.2582V2.73811C38 1.22708 36.7349 0 35.1854 0ZM11.2702 32.3813H5.63139V14.2474H11.2702V32.3813ZM8.45078 11.7679C6.64419 11.7679 5.18383 10.3038 5.18383 8.49881C5.18383 6.69644 6.64419 5.23239 8.45078 5.23239C10.2531 5.23239 11.7172 6.69644 11.7172 8.49881C11.7172 10.3038 10.2531 11.7679 8.45078 11.7679ZM32.3792 32.3813H26.7494V23.5632C26.7494 21.4594 26.7082 18.7546 23.8197 18.7546C20.8863 18.7546 20.4393 21.0457 20.4393 23.4106V32.3818H14.8052V14.2474H20.2123V16.7237H20.2894C21.042 15.2987 22.8808 13.7951 25.6231 13.7951C31.3263 13.7951 32.3797 17.5497 32.3797 22.4342L32.3792 32.3813Z" fill="#3D3D3D"/>
</svg>
