<svg width="84" height="90" viewBox="0 0 84 90" fill="none" xmlns="http://www.w3.org/2000/svg">
<path d="M81.375 36.5625L70.875 28.125V33.75H60.375C61.7674 33.75 63.1027 33.1574 64.0873 32.1025C65.0719 31.0476 65.625 29.6168 65.625 28.125V14.0625H70.875L63 2.8125L55.125 14.0625H60.375V26.7188C60.375 27.0917 60.2367 27.4494 59.9906 27.7131C59.7444 27.9768 59.4106 28.125 59.0625 28.125H48.3709C48.4837 28.575 48.5625 29.0419 48.5625 29.5312C48.5602 30.3327 48.397 31.1242 48.084 31.8521C47.7711 32.58 47.3156 33.2273 46.7486 33.75C45.8259 34.6148 44.6329 35.1562 43.3125 35.1562H42.3097C41.7447 36.6863 40.9561 38.1103 39.9735 39.375C38.7767 40.9336 37.3078 42.2271 35.6488 43.1831L35.9888 45H59.0625C59.4106 45 59.7444 45.1482 59.9906 45.4119C60.2367 45.6756 60.375 46.0333 60.375 46.4062V75.9375H56.4375V77.812L63 87.1875L70.875 75.9375H65.625V45C65.625 43.5082 65.0719 42.0774 64.0873 41.0225C63.1027 39.9676 61.7674 39.375 60.375 39.375H70.875V45L81.375 36.5625ZM40.6875 29.5312V23.9062C40.6875 22.3552 39.5102 21.0938 38.0625 21.0938H25.5767C24.5906 21.0935 23.6205 20.8278 22.7552 20.3212C21.8899 19.8145 21.1573 19.0831 20.6246 18.1941L19.6127 18.8452C18.8367 19.3467 18.1944 20.054 17.7477 20.8989C17.301 21.7437 17.0651 22.6976 17.0625 23.6686V29.5312C17.0625 36.5105 22.3624 42.1875 28.875 42.1875C35.3876 42.1875 40.6875 36.5105 40.6875 29.5312ZM19.6875 28.125C19.6875 25.7991 21.4541 23.9062 23.625 23.9062C25.7959 23.9062 27.5625 25.7991 27.5625 28.125H24.9375C24.9224 27.7629 24.7775 27.421 24.533 27.1705C24.2885 26.92 23.9633 26.7802 23.625 26.7802C23.2867 26.7802 22.9615 26.92 22.717 27.1705C22.4725 27.421 22.3276 27.7629 22.3125 28.125H19.6875ZM35.3036 34.4109C34.3796 37.3809 31.7966 39.375 28.875 39.375C25.9534 39.375 23.3704 37.3809 22.4477 34.4123L22.3794 34.1944L24.8706 33.307L24.9375 33.5236C25.5032 35.3405 27.0861 36.5625 28.875 36.5625C30.6639 36.5625 32.2468 35.3405 32.8125 33.5222L32.8794 33.307L35.3706 34.1944L35.3036 34.4109ZM34.125 26.7188C33.4018 26.7188 32.8125 27.3487 32.8125 28.125H30.1875C30.1875 25.7991 31.9541 23.9062 34.125 23.9062C36.2959 23.9062 38.0625 25.7991 38.0625 28.125H35.4375C35.4375 27.3487 34.8482 26.7188 34.125 26.7188ZM24.1907 58.7503L21.9463 60.4673L24.0739 67.3087L24.9112 61.927L24.1907 58.7503ZM22.0605 50.6967L19.0864 51.2761L21.0774 57.6773L26.4836 53.5402L22.0605 50.6967Z" fill="#FBAC0F"/>
<path d="M12.8153 15.4688H12.6236C12.1514 15.4637 11.6813 15.399 11.2232 15.2761L11.1235 15.383C10.5079 16.0391 10.0198 16.8196 9.68753 17.6791C9.35524 18.5387 9.18529 19.4603 9.18752 20.3906C9.18752 22.2314 9.84902 23.9583 11.0355 25.283C11.9778 24.4001 13.1858 23.9113 14.4375 23.9062V23.6686C14.4412 22.2122 14.7951 20.7813 15.465 19.5141C16.1349 18.2468 17.0982 17.1858 18.2621 16.4334L19.7256 15.4927C19.5724 14.0559 19.8853 12.6065 20.6116 11.3876C21.3378 10.1687 22.4334 9.2547 23.7143 8.79891L24.5228 8.50922L25.3523 11.1783L24.5438 11.4666C23.8937 11.6982 23.3283 12.1434 22.9278 12.7389C22.5272 13.3344 22.312 14.0499 22.3125 14.7839C22.3136 15.7111 22.6578 16.6 23.2697 17.2557C23.8817 17.9113 24.7113 18.2801 25.5767 18.2812H38.0625C40.9579 18.2812 43.3125 20.8041 43.3125 23.9062C43.9622 23.9062 44.5778 24.0497 45.1526 24.2817L45.5228 22.6969C45.7984 21.517 45.9375 20.3034 45.9375 19.0898C45.9375 10.89 39.711 4.21875 32.0578 4.21875H12.6236C11.7126 4.21987 10.8393 4.6081 10.1951 5.29829C9.55092 5.98847 9.18856 6.92424 9.18752 7.90031V8.97469C9.18856 9.95076 9.55092 10.8865 10.1951 11.5767C10.8393 12.2669 11.7126 12.6551 12.6236 12.6562H12.8153C14.1251 12.6562 15.3025 11.8758 15.8878 10.6214L18.2359 11.88C17.7353 12.9609 16.9622 13.87 16.0042 14.5042C15.0461 15.1385 13.9415 15.4726 12.8153 15.4688ZM21.2861 67.2427L18.9801 66.5367L17.308 70.1184L25.4297 80.5612L21.2861 67.2427ZM11.8125 29.5312C11.8125 31.0823 12.9898 32.3438 14.4375 32.3438H14.6882C14.5307 31.4297 14.4375 30.4931 14.4375 29.5312V26.7188C12.9898 26.7188 11.8125 27.9802 11.8125 29.5312ZM16.4771 51.7852L14.4375 52.1817V62.2209L20.2808 64.0083L16.4771 51.7852ZM26.4928 56.9883L27.2816 60.4688H30.4684L31.2572 56.9883L28.875 55.1658L26.4928 56.9883Z" fill="#FBAC0F"/>
<path d="M16.4115 65.7492L11.8125 64.3416V52.7217C9.59472 53.2905 7.6166 54.6337 6.18975 56.5397C4.73401 58.4936 3.93999 60.9189 3.9375 63.4191V85.7812H9.1875V67.5H11.8125V85.7812H26.0728L14.1921 70.5066L16.4115 65.7492ZM30.3883 63.2812H27.3617L25.8484 73.0111L28.875 82.7395L31.9016 73.0111L30.3883 63.2812ZM43.3125 26.7188V29.5312C43.3125 30.4931 43.2193 31.4297 43.0618 32.3438H43.3125C44.7602 32.3438 45.9375 31.0823 45.9375 29.5312C45.9375 27.9802 44.7602 26.7188 43.3125 26.7188ZM28.875 45C27.3761 45 25.9297 44.7525 24.57 44.2969L23.7812 48.5227L28.875 51.7978L33.9688 48.5227L33.18 44.2969C31.8203 44.7525 30.3739 45 28.875 45ZM45.9375 52.7231V64.3416L41.3385 65.7506L43.5579 70.5066L31.6772 85.7812H45.9375V67.5H48.5625V85.7812H53.8125V63.4191C53.8098 60.919 53.0158 58.4938 51.5602 56.5397C50.1337 54.6337 48.1554 53.2909 45.9375 52.7231ZM31.2664 53.5402L36.6726 57.6773L38.6636 51.2775L35.6895 50.6967L31.2664 53.5402ZM33.5593 58.7503L32.8388 61.927L33.6761 67.3087L35.8037 60.4673L33.5593 58.7503Z" fill="#FBAC0F"/>
<path d="M40.4421 70.1184L38.7699 66.5367L36.4639 67.2427L32.3203 80.5612L40.4421 70.1184ZM43.3125 52.1831L41.2729 51.7852L37.4693 64.0083L43.3125 62.2209V52.1831Z" fill="#FBAC0F"/>
</svg>
