<svg width="90" height="90" viewBox="0 0 90 90" fill="none" xmlns="http://www.w3.org/2000/svg">
<path fill-rule="evenodd" clip-rule="evenodd" d="M51.123 19.3359C53.8386 19.9828 56.4337 21.0587 58.8105 22.523L63.8058 20.3043L69.6934 26.1917L67.4754 31.1856C68.94 33.563 70.0161 36.1587 70.663 38.875L75.7595 40.8367V49.163L70.6618 51.1252C70.0149 53.8408 68.939 56.4359 67.4747 58.8127L69.6932 63.808L63.8058 69.6956L58.812 67.4776C56.4346 68.9423 53.8388 70.0183 51.1225 70.6652L49.1611 75.7617H40.8349L38.8726 70.664C36.157 70.0171 33.5619 68.9412 31.1852 67.4769L26.1898 69.6956L20.3022 63.8082L22.5202 58.8144C21.0556 56.437 19.9796 53.8412 19.3328 51.1249L14.2362 49.1631V40.8369L19.3333 38.875C19.9802 36.1591 21.0561 33.5638 22.5206 31.1869L20.3022 26.1921L26.1897 20.3044L31.185 22.5231C33.5618 21.0589 36.1569 19.983 38.8725 19.3361L40.8347 14.2384H49.1608L51.123 19.3359ZM44.9979 27.8033C35.5008 27.8033 27.8014 35.5028 27.8014 44.9999C27.8014 54.4971 35.5008 62.1966 44.9979 62.1966C54.495 62.1966 62.1946 54.4971 62.1946 44.9999C62.1946 35.5028 54.495 27.8033 44.9979 27.8033ZM44.9979 30.6158C37.0537 30.6158 30.6137 37.0555 30.6137 44.9999C30.6137 52.9444 37.0535 59.3841 44.9979 59.3841C52.9422 59.3841 59.3821 52.9444 59.3821 44.9999C59.3821 37.0557 52.9422 30.6158 44.9979 30.6158ZM42.9239 46.3928L39.3956 42.8646C38.4812 41.9501 36.9978 41.9501 36.0833 42.8646C35.1689 43.779 35.1689 45.2624 36.0833 46.1766L41.2728 51.366C42.1872 52.2805 43.6706 52.2805 44.5848 51.366C47.7127 48.238 50.8054 45.075 53.9188 41.9326C54.8267 41.0164 54.8239 39.5377 53.9088 38.6277C52.9935 37.7175 51.5108 37.72 50.602 38.6379L42.9239 46.3928ZM45.1145 85.7831C25.1069 85.8548 7.86922 71.2996 4.71641 51.3725C1.79035 32.8793 11.9642 14.6569 29.1219 7.43461L27.198 11.0619C27.1121 11.2249 27.0592 11.4032 27.0422 11.5867C27.0253 11.7702 27.0447 11.9552 27.0993 12.1312C27.1538 12.3072 27.2426 12.4707 27.3604 12.6124C27.4782 12.7541 27.6227 12.8711 27.7858 12.957C27.9488 13.0428 28.1271 13.0957 28.3106 13.1127C28.4941 13.1296 28.6791 13.1102 28.8551 13.0556C29.0311 13.0011 29.1946 12.9123 29.3363 12.7945C29.478 12.6768 29.5951 12.5322 29.6809 12.3691L33.2956 5.5541C33.7674 4.75412 33.3412 3.70664 32.4266 3.47795L24.878 1.58549C24.6991 1.54074 24.5131 1.53167 24.3308 1.5588C24.1484 1.58592 23.9731 1.64871 23.815 1.74359C23.6568 1.83846 23.519 1.96355 23.4092 2.11172C23.2994 2.25989 23.2199 2.42823 23.1752 2.60713C23.1304 2.78602 23.1214 2.97197 23.1485 3.15437C23.1756 3.33677 23.2384 3.51203 23.3333 3.67016C23.4282 3.82828 23.5533 3.96617 23.7014 4.07594C23.8496 4.18571 24.0179 4.26522 24.1968 4.30992L27.4054 5.11448C9.41047 13.039 -1.14238 32.2818 1.94785 51.812C5.31846 73.1163 23.7249 88.6612 45.1145 88.5845C45.4812 88.5774 45.8306 88.4267 46.0875 88.1648C46.3444 87.9029 46.4883 87.5507 46.4883 87.1838C46.4883 86.817 46.3444 86.4648 46.0875 86.2029C45.8306 85.9409 45.4812 85.7902 45.1145 85.7831ZM65.7988 85.6896L62.5873 84.8844C80.6615 76.9383 91.1437 57.7541 88.048 38.1877C84.6765 16.8799 66.2754 1.33694 44.8812 1.41533C44.5135 1.42116 44.1629 1.57131 43.9049 1.83337C43.647 2.09544 43.5024 2.44842 43.5024 2.81614C43.5024 3.18385 43.647 3.53683 43.9049 3.7989C44.1629 4.06096 44.5135 4.21111 44.8812 4.21694C64.8967 4.14364 82.1252 18.6923 85.2794 38.6275C88.2116 57.1601 78.1067 75.3085 60.8713 82.5698L62.7977 78.938C62.8836 78.775 62.9365 78.5967 62.9534 78.4132C62.9704 78.2297 62.951 78.0447 62.8964 77.8687C62.8418 77.6927 62.7531 77.5292 62.6353 77.3875C62.5175 77.2458 62.3729 77.1287 62.2099 77.0429C62.0469 76.9571 61.8685 76.9041 61.685 76.8872C61.5016 76.8703 61.3165 76.8896 61.1406 76.9442C60.9646 76.9988 60.8011 77.0875 60.6594 77.2053C60.5177 77.3231 60.4006 77.4677 60.3148 77.6307L56.6998 84.4458C56.2282 85.2459 56.6541 86.2932 57.5689 86.5219L65.1177 88.4147C65.2965 88.4595 65.4825 88.4686 65.6649 88.4414C65.8473 88.4143 66.0226 88.3515 66.1807 88.2567C66.3388 88.1618 66.4767 88.0367 66.5865 87.8885C66.6962 87.7403 66.7757 87.572 66.8204 87.3931C66.8652 87.2142 66.8743 87.0282 66.8472 86.8457C66.8201 86.6633 66.7573 86.4879 66.6625 86.3298C66.5676 86.1716 66.4425 86.0336 66.2943 85.9238C66.1461 85.8139 65.9778 85.7344 65.7988 85.6896Z" fill="#FBAC0F"/>
</svg>
