<svg width="90" height="90" viewBox="0 0 90 90" fill="none" xmlns="http://www.w3.org/2000/svg">
<path d="M59.397 63.0742L63.5125 56.3959L70.9397 53.8629L71.7625 46.0622L77.3504 40.5612L74.6936 33.1773L77.3504 25.7933L71.7627 20.2922L70.9398 12.4917L63.5127 9.95871L59.3972 3.28025L51.6127 4.22016L45 0L38.3873 4.22051L30.603 3.28061L26.4874 9.95889L19.0603 12.4919L18.2374 20.2924L12.6495 25.7934L15.3063 33.1775L12.6495 40.5615L18.2373 46.0624L19.0601 53.8631L26.4872 56.3961L30.6028 63.0744L38.3873 62.1346L45 66.355L51.6127 62.1346L59.397 63.0742ZM22.2488 33.1775C22.2488 20.6325 32.455 10.4263 45 10.4263C57.5449 10.4263 67.7512 20.6325 67.7512 33.1775C67.7512 45.7225 57.5449 55.9287 45 55.9287C32.455 55.9287 22.2488 45.7225 22.2488 33.1775Z" fill="#FBAC0F"/>
<path d="M45 15.7031C35.3646 15.7031 27.5256 23.5421 27.5256 33.1775C27.5256 42.813 35.3646 50.652 45 50.652C54.6355 50.652 62.4744 42.813 62.4744 33.1775C62.4744 23.5421 54.6355 15.7031 45 15.7031ZM37.1424 67.5999L27.8823 68.7179L22.9897 60.7784L21.3265 60.2113L14.1523 82.635L27.0679 81.9247L37.1727 90.0001L43.119 71.4144L37.1424 67.5999ZM67.0103 60.7785L62.1176 68.7179L52.8576 67.5999L46.8811 71.4144L52.8274 90.0001L62.9322 81.9247L75.8477 82.635L68.6735 60.2113L67.0103 60.7785Z" fill="#FBAC0F"/>
</svg>
