<svg width="70" height="70" viewBox="0 0 70 70" fill="none" xmlns="http://www.w3.org/2000/svg">
<g clip-path="url(#clip0_54_97)">
<path d="M35 70C54.33 70 70 54.33 70 35C70 15.67 54.33 0 35 0C15.67 0 0 15.67 0 35C0 54.33 15.67 70 35 70Z" fill="#FBAC0F"/>
<path d="M69.5498 40.6135L62.8159 33.8796L60.1965 32.2993L44.6126 16.6939L40.8955 15.1758L34.3112 31.297L25.6401 22.7181L7.18433 33.8795V36.2962L40.4626 69.5745C55.3672 67.2384 67.1499 55.4969 69.5498 40.6135Z" fill="#BF7F00"/>
<path d="M7.18433 33.8802L25.6401 22.7188V27.8601L14.1712 34.9787L25.6401 41.9217V47.2826L7.18433 36.297V33.8802Z" fill="#172858"/>
<path d="M62.8156 36.297L44.3159 47.2826V41.9217L55.7848 34.9787L44.3159 27.8601V22.7188L62.8156 33.8802V36.297Z" fill="#172858"/>
<path d="M29.0386 54.8223L25.3213 53.3042L40.8943 15.1723L44.6115 16.6904L29.0386 54.8223Z" fill="#172858"/>
<path d="M44.6128 16.6943L35 40.2322V29.6112L40.8954 15.1758L44.6128 16.6943Z" fill="#172858"/>
</g>
<defs>
<clipPath id="clip0_54_97">
<rect width="70" height="70" fill="white"/>
</clipPath>
</defs>
</svg>
