<svg width="30" height="30" viewBox="0 0 30 30" fill="none" xmlns="http://www.w3.org/2000/svg">
<g clip-path="url(#clip0_71_957)">
<path d="M26.7676 0H3.23238C1.45002 0 0 1.45008 0 3.23244V21.1192C0 22.9015 1.45002 24.3516 3.23238 24.3516H17.0704V20.6484C17.0704 17.6372 19.5201 15.1875 22.5312 15.1875C25.5424 15.1875 27.9921 17.6373 27.9921 20.6484V24.1099C29.1689 23.6263 30 22.4682 30 21.1192V3.23244C30 1.45008 28.5499 0 26.7676 0ZM8.41014 3.82811H21.5899C22.0752 3.82811 22.4688 4.22162 22.4688 4.70701C22.4688 5.1924 22.0752 5.58592 21.5899 5.58592H8.41014C7.92481 5.58592 7.53123 5.1924 7.53123 4.70701C7.53123 4.22162 7.92481 3.82811 8.41014 3.82811ZM14.1836 19.6446H4.64449C4.15916 19.6446 3.76559 19.251 3.76559 18.7656C3.76559 18.2803 4.15916 17.8867 4.64449 17.8867H14.1836C14.6691 17.8867 15.0625 18.2803 15.0625 18.7656C15.0625 19.251 14.6691 19.6446 14.1836 19.6446ZM25.3554 13.1172H4.64449C4.15916 13.1172 3.76559 12.7237 3.76559 12.2383C3.76559 11.7529 4.15916 11.3594 4.64449 11.3594H25.3554C25.8409 11.3594 26.2344 11.7529 26.2344 12.2383C26.2343 12.7237 25.8409 13.1172 25.3554 13.1172ZM25.3554 9.35156H4.64449C4.15916 9.35156 3.76559 8.95805 3.76559 8.47266C3.76559 7.98727 4.15916 7.59375 4.64449 7.59375H25.3554C25.8409 7.59375 26.2344 7.98727 26.2344 8.47266C26.2343 8.95805 25.8409 9.35156 25.3554 9.35156Z" fill="#0E1F51" fill-opacity="0.960784"/>
<path d="M22.5312 16.9453C20.4893 16.9453 18.8281 18.6066 18.8281 20.6484C18.8281 22.6903 20.4894 24.3515 22.5312 24.3515C24.5731 24.3515 26.2343 22.6903 26.2343 20.6484C26.2343 18.6066 24.5731 16.9453 22.5312 16.9453ZM18.8281 24.6581V29.1211C18.8281 29.2802 18.8713 29.4363 18.953 29.5728C19.0347 29.7093 19.152 29.821 19.2923 29.8961C19.4325 29.9711 19.5905 30.0067 19.7494 29.999C19.9083 29.9913 20.0622 29.9406 20.1945 29.8523L22.5312 28.2946L24.8678 29.8523C25.0122 29.9487 25.1819 30 25.3555 30C25.4709 30 25.5852 29.9773 25.6918 29.9331C25.7984 29.8889 25.8953 29.8242 25.9769 29.7426C26.0585 29.661 26.1232 29.5641 26.1674 29.4574C26.2116 29.3508 26.2343 29.2365 26.2343 29.1211V24.6581C25.2603 25.5583 23.9589 26.1094 22.5312 26.1094C21.1034 26.1094 19.8021 25.5583 18.8281 24.6581Z" fill="#0E1F51" fill-opacity="0.960784"/>
</g>
<defs>
<clipPath id="clip0_71_957">
<rect width="30" height="30" fill="white"/>
</clipPath>
</defs>
</svg>
