<svg width="90" height="90" viewBox="0 0 90 90" fill="none" xmlns="http://www.w3.org/2000/svg">
<path d="M30.9375 16.875L36.5625 5.625H33.75L28.125 16.875H30.9375ZM25.3125 16.875L30.9375 5.625H8.4375C7.69158 5.625 6.97621 5.92132 6.44876 6.44876C5.92132 6.97621 5.625 7.69158 5.625 8.4375V16.875H25.3125ZM19.6875 8.4375C20.4334 8.4375 21.1488 8.73382 21.6762 9.26126C22.2037 9.78871 22.5 10.5041 22.5 11.25C22.5 11.9959 22.2037 12.7113 21.6762 13.2387C21.1488 13.7662 20.4334 14.0625 19.6875 14.0625C18.9416 14.0625 18.2262 13.7662 17.6988 13.2387C17.1713 12.7113 16.875 11.9959 16.875 11.25C16.875 10.5041 17.1713 9.78871 17.6988 9.26126C18.2262 8.73382 18.9416 8.4375 19.6875 8.4375ZM11.25 8.4375C11.9959 8.4375 12.7113 8.73382 13.2387 9.26126C13.7662 9.78871 14.0625 10.5041 14.0625 11.25C14.0625 11.9959 13.7662 12.7113 13.2387 13.2387C12.7113 13.7662 11.9959 14.0625 11.25 14.0625C10.5041 14.0625 9.78871 13.7662 9.26126 13.2387C8.73382 12.7113 8.4375 11.9959 8.4375 11.25C8.4375 10.5041 8.73382 9.78871 9.26126 9.26126C9.78871 8.73382 10.5041 8.4375 11.25 8.4375ZM84.375 16.875V8.4375C84.375 7.69158 84.0787 6.97621 83.5512 6.44876C83.0238 5.92132 82.3084 5.625 81.5625 5.625H39.375L33.75 16.875H84.375ZM5.625 19.6875V81.5625C5.625 82.3084 5.92132 83.0238 6.44876 83.5512C6.97621 84.0787 7.69158 84.375 8.4375 84.375H81.5625C82.3084 84.375 83.0238 84.0787 83.5512 83.5512C84.0787 83.0238 84.375 82.3084 84.375 81.5625V19.6875H5.625ZM39.375 75.9375C39.375 76.6834 39.0787 77.3988 38.5512 77.9262C38.0238 78.4537 37.3084 78.75 36.5625 78.75H14.0625C13.3166 78.75 12.6012 78.4537 12.0738 77.9262C11.5463 77.3988 11.25 76.6834 11.25 75.9375V59.0625C11.25 58.3166 11.5463 57.6012 12.0738 57.0738C12.6012 56.5463 13.3166 56.25 14.0625 56.25H36.5625C37.3084 56.25 38.0238 56.5463 38.5512 57.0738C39.0787 57.6012 39.375 58.3166 39.375 59.0625V75.9375ZM39.375 45C39.375 45.7459 39.0787 46.4613 38.5512 46.9887C38.0238 47.5162 37.3084 47.8125 36.5625 47.8125H14.0625C13.3166 47.8125 12.6012 47.5162 12.0738 46.9887C11.5463 46.4613 11.25 45.7459 11.25 45V28.125C11.25 27.3791 11.5463 26.6637 12.0738 26.1363C12.6012 25.6088 13.3166 25.3125 14.0625 25.3125H36.5625C37.3084 25.3125 38.0238 25.6088 38.5512 26.1363C39.0787 26.6637 39.375 27.3791 39.375 28.125V45ZM78.75 75.9375C78.75 76.6834 78.4537 77.3988 77.9262 77.9262C77.3988 78.4537 76.6834 78.75 75.9375 78.75H53.4375C52.6916 78.75 51.9762 78.4537 51.4488 77.9262C50.9213 77.3988 50.625 76.6834 50.625 75.9375V59.0625C50.625 58.3166 50.9213 57.6012 51.4488 57.0738C51.9762 56.5463 52.6916 56.25 53.4375 56.25H75.9375C76.6834 56.25 77.3988 56.5463 77.9262 57.0738C78.4537 57.6012 78.75 58.3166 78.75 59.0625V75.9375ZM78.75 45C78.75 45.7459 78.4537 46.4613 77.9262 46.9887C77.3988 47.5162 76.6834 47.8125 75.9375 47.8125H53.4375C52.6916 47.8125 51.9762 47.5162 51.4488 46.9887C50.9213 46.4613 50.625 45.7459 50.625 45V28.125C50.625 27.3791 50.9213 26.6637 51.4488 26.1363C51.9762 25.6088 52.6916 25.3125 53.4375 25.3125H75.9375C76.6834 25.3125 77.3988 25.6088 77.9262 26.1363C78.4537 26.6637 78.75 27.3791 78.75 28.125V45Z" fill="#FBAC0F"/>
<path d="M33.75 59.0625H16.875C16.1291 59.0625 15.4137 59.3588 14.8863 59.8863C14.3588 60.4137 14.0625 61.1291 14.0625 61.875V73.125C14.0625 73.8709 14.3588 74.5863 14.8863 75.1137C15.4137 75.6412 16.1291 75.9375 16.875 75.9375H33.75C34.4959 75.9375 35.2113 75.6412 35.7387 75.1137C36.2662 74.5863 36.5625 73.8709 36.5625 73.125V61.875C36.5625 61.1291 36.2662 60.4137 35.7387 59.8863C35.2113 59.3588 34.4959 59.0625 33.75 59.0625ZM75.0938 71.0634L66.9375 60.1875C65.8772 58.77 63.4978 58.77 62.4375 60.1875L54 71.4375C53.6866 71.8554 53.4958 72.3522 53.4489 72.8724C53.402 73.3926 53.5008 73.9156 53.7344 74.3828C53.968 74.85 54.3271 75.2429 54.7714 75.5175C55.2157 75.7921 55.7277 75.9375 56.25 75.9375H73.1813C73.7464 75.9374 74.2984 75.767 74.7653 75.4486C75.2322 75.1301 75.5923 74.6784 75.7988 74.1523C76.0052 73.6262 76.0484 73.0501 75.9226 72.4992C75.7968 71.9482 75.508 71.4479 75.0938 71.0634Z" fill="#FBAC0F"/>
<path d="M64.6875 45C69.3474 45 73.125 41.2224 73.125 36.5625C73.125 31.9026 69.3474 28.125 64.6875 28.125C60.0276 28.125 56.25 31.9026 56.25 36.5625C56.25 41.2224 60.0276 45 64.6875 45Z" fill="#FBAC0F"/>
<path d="M33.75 30.9375H28.125C27.3791 30.9377 26.6639 31.2341 26.1366 31.7616L25.3125 32.5856L24.4884 31.7616C23.9611 31.2341 23.2459 30.9377 22.5 30.9375H16.875C16.1291 30.9375 15.4137 31.2338 14.8863 31.7613C14.3588 32.2887 14.0625 33.0041 14.0625 33.75C14.0625 34.4959 14.3588 35.2113 14.8863 35.7387C15.4137 36.2662 16.1291 36.5625 16.875 36.5625H21.3356L23.3241 38.5509C23.5847 38.813 23.8945 39.021 24.2357 39.1629C24.577 39.3048 24.9429 39.3779 25.3125 39.3779C25.6821 39.3779 26.048 39.3048 26.3893 39.1629C26.7305 39.021 27.0403 38.813 27.3009 38.5509L29.2894 36.5625H33.75C34.4959 36.5625 35.2113 36.2662 35.7387 35.7387C36.2662 35.2113 36.5625 34.4959 36.5625 33.75C36.5625 33.0041 36.2662 32.2887 35.7387 31.7613C35.2113 31.2338 34.4959 30.9375 33.75 30.9375Z" fill="#FBAC0F"/>
</svg>
