<svg width="31" height="30" viewBox="0 0 31 30" fill="none" xmlns="http://www.w3.org/2000/svg">
<g clip-path="url(#clip0_44_754)">
<path d="M24.8656 14.1099H25.8741C25.6889 11.9365 24.8244 9.95407 23.4942 8.37614L22.7845 9.0858C22.4411 9.42928 21.8842 9.42928 21.5407 9.0858C21.1972 8.74238 21.1972 8.18546 21.5407 7.84198L22.2504 7.13232C20.6724 5.80207 18.6901 4.93761 16.5166 4.75244V5.76096C16.4701 6.92792 14.8036 6.92704 14.7576 5.76096V4.75244C12.5842 4.93761 10.6018 5.80207 9.02385 7.13232L9.73351 7.84198C10.077 8.1854 10.077 8.74232 9.73351 9.0858C9.39002 9.42928 8.83317 9.42928 8.48968 9.0858L7.78002 8.37614C6.44977 9.95407 5.58532 11.9364 5.40015 14.1099H6.40867C7.57562 14.1564 7.57474 15.8229 6.40867 15.8689H5.40015C5.58532 18.0424 6.44977 20.0247 7.77996 21.6027L8.48968 20.893C8.83317 20.5495 9.39002 20.5494 9.73351 20.893C10.077 21.2364 10.077 21.7932 9.73351 22.1368L9.02379 22.8465C10.6017 24.1767 12.584 25.0412 14.7575 25.2263V24.2178C14.804 23.0508 16.4705 23.0517 16.5166 24.2178V25.2263C18.69 25.0411 20.6724 24.1767 22.2503 22.8465L21.5405 22.1367C21.1971 21.7932 21.1971 21.2364 21.5406 20.8928C21.884 20.5495 22.4409 20.5495 22.7844 20.8929L23.4941 21.6026C24.8243 20.0247 25.6888 18.0424 25.874 15.8689H24.8654C23.6986 15.8225 23.6995 14.1559 24.8656 14.1099ZM18.6338 17.9861C18.2903 18.3295 17.7334 18.3296 17.3899 17.9861L15.0152 15.6113C14.9335 15.5297 14.8688 15.4327 14.8245 15.326C14.7803 15.2193 14.7576 15.105 14.7576 14.9895V11.1196C14.8041 9.9526 16.4706 9.95348 16.5166 11.1196V14.6252L18.6337 16.7422C18.9773 17.0857 18.9773 17.6426 18.6338 17.9861Z" fill="#0E1F51" fill-opacity="0.960784"/>
<path d="M28.9055 19.93C28.4617 19.7325 27.9419 19.9323 27.7444 20.376C21.7783 33.3265 2.58029 29.2602 2.38557 14.9893C2.33901 4.20155 14.8636 -2.11373 23.5012 4.32422L22.8319 4.30487C21.6639 4.31976 21.617 5.98288 22.7812 6.06321L26.3126 6.16512C26.4564 6.16927 26.5991 6.13805 26.7281 6.0742C26.8571 6.01035 26.9685 5.91582 27.0524 5.7989C27.1363 5.68199 27.1903 5.54625 27.2096 5.40362C27.2288 5.26098 27.2128 5.1158 27.1628 4.98081L25.9372 1.66735C25.7687 1.21181 25.2629 0.97915 24.8072 1.14761C24.3516 1.31612 24.1189 1.82209 24.2874 2.27762L24.5116 2.88361C18.7549 -1.46822 10.0458 -0.833433 5.02303 4.37558C-4.38941 13.8068 2.31421 29.9875 15.6372 30C21.5605 30.0001 26.9438 26.5031 29.3516 21.0911C29.549 20.6473 29.3493 20.1275 28.9055 19.93Z" fill="#0E1F51" fill-opacity="0.960784"/>
</g>
<defs>
<clipPath id="clip0_44_754">
<rect width="30" height="30" fill="white" transform="translate(0.0270996)"/>
</clipPath>
</defs>
</svg>
