<svg width="90" height="90" viewBox="0 0 90 90" fill="none" xmlns="http://www.w3.org/2000/svg">
<g clip-path="url(#clip0_2001_67)">
<path d="M80.7188 15.1875C80.7188 20.1094 76.6406 24.1875 71.7188 24.1875C66.7969 24.1875 62.7188 20.1094 62.7188 15.1875C62.7188 10.2656 66.7969 6.1875 71.7188 6.1875C76.6406 6.1875 80.7188 10.2656 80.7188 15.1875ZM26.8594 58.2187L26.7188 58.5L13.0781 78.0469C12.6563 78.75 11.8125 78.8906 11.1094 78.3281C10.5469 77.9062 10.2656 77.0625 10.8281 76.3594L23.625 58.2187H26.8594ZM45.1406 78.3281C44.4375 78.75 43.5938 78.6094 43.1719 78.0469L29.5312 58.5L29.3906 58.2187H32.7656L45.5625 76.3594C45.9844 77.0625 45.8437 77.9062 45.1406 78.3281Z" fill="#FBAC0F"/>
<path d="M29.5313 58.2189V71.8596C29.5313 72.5627 28.9688 73.2658 28.125 73.2658C27.4219 73.2658 26.7188 72.5627 26.7188 71.8596V58.2189H29.5313ZM43.1719 26.7189C42.75 26.8596 42.4688 27.1408 42.0469 27.2814C41.625 27.5627 41.2031 27.8439 40.7813 28.2658L38.8125 25.4533C38.3906 24.7502 38.5312 23.9064 39.0938 23.4846C39.6562 23.0627 40.6406 23.2033 41.0625 23.7658L43.1719 26.7189Z" fill="#FBAC0F"/>
<path d="M37.5469 21.2344C39.375 19.9688 42.0469 20.3906 43.4531 22.2188L46.125 26.0156H46.2656C48.9375 26.0156 51.3281 27.2812 52.7344 29.5312L54.7031 32.4844C54.8438 32.3438 54.9844 32.0625 55.125 31.9219V15.4688C55.125 14.7656 54.4219 14.0625 53.7188 14.0625H1.40625C0.5625 14.0625 0 14.7656 0 15.4688V54.1406C0 54.8438 0.5625 55.5469 1.40625 55.5469H53.5781C54.2812 55.5469 54.9844 54.8438 54.9844 54.1406V53.0156C51.75 53.5781 48.7969 52.1719 47.25 49.6406L39.7969 37.9688C38.3906 35.8594 38.1094 33.1875 39.0938 30.7969L36.5625 27.1406C35.1562 25.1719 35.7188 22.6406 37.5469 21.2344ZM8.71875 21.375H26.7188C27.5625 21.375 28.125 21.9375 28.125 22.7813C28.125 23.625 27.5625 24.1875 26.7188 24.1875H8.71875C7.875 24.1875 7.3125 23.625 7.3125 22.7813C7.3125 22.0781 7.875 21.375 8.71875 21.375ZM8.71875 29.3906H33.75C34.5938 29.3906 35.1562 29.9531 35.1562 30.7969C35.1562 31.6406 34.5938 32.2031 33.75 32.2031H8.71875C7.875 32.2031 7.3125 31.6406 7.3125 30.7969C7.3125 29.9531 7.875 29.3906 8.71875 29.3906ZM39.375 45.1406C40.2188 45.1406 40.7812 45.7031 40.7812 46.5469C40.7812 47.3906 40.2188 47.9531 39.375 47.9531H8.71875C7.875 47.9531 7.3125 47.3906 7.3125 46.5469C7.3125 45.7031 7.875 45.1406 8.71875 45.1406H39.375ZM36.5625 37.2656C37.4062 37.2656 37.9688 37.8281 37.9688 38.6719C37.9688 39.5156 37.4062 40.0781 36.5625 40.0781H8.71875C7.875 40.0781 7.3125 39.5156 7.3125 38.6719C7.3125 37.8281 7.875 37.2656 8.71875 37.2656H36.5625Z" fill="#FBAC0F"/>
<path d="M85.0781 27H64.9688C64.2656 27 63.5625 27.1406 63 27.4219C62.5781 27.5625 61.875 27.8437 54.4219 37.2656L50.3438 30.9375C48.7969 28.6875 45.8438 28.125 43.5938 29.5312C41.2031 31.0781 40.7813 34.0312 42.1875 36.2812L49.6406 47.9531C51.4688 50.625 55.125 50.9062 57.2344 48.6562L60.8906 44.7187V78.75C60.8906 81.2812 62.8594 83.5312 65.25 83.8125C68.2031 84.0937 70.5938 81.8438 70.5938 79.0312V60.1875C70.5938 59.4844 71.1563 58.7812 72 58.7812C72.7031 58.7812 73.4063 59.3437 73.4063 60.1875V78.75C73.4063 81.4219 75.5156 83.8125 78.3281 83.8125C81 83.8125 83.25 81.5625 83.25 78.8906V52.875C83.9531 53.1562 84.5156 53.2969 85.3594 53.2969C88.0313 53.2969 90.2812 51.0469 90.2812 48.375V31.9219C90 29.1094 87.75 27 85.0781 27ZM73.125 47.5312C73.125 48.375 72.5625 48.9375 71.7188 48.9375C70.875 48.9375 70.3125 48.375 70.3125 47.5312V44.7187C70.3125 43.875 70.875 43.3125 71.7188 43.3125C72.5625 43.3125 73.125 43.875 73.125 44.7187V47.5312ZM73.125 39.0937C73.125 39.9375 72.5625 40.5 71.7188 40.5C70.875 40.5 70.3125 39.9375 70.3125 39.0937V36.2812C70.3125 35.4375 70.875 34.875 71.7188 34.875C72.5625 34.875 73.125 35.4375 73.125 36.2812V39.0937Z" fill="#FBAC0F"/>
</g>
<defs>
<clipPath id="clip0_2001_67">
<rect width="90" height="90" fill="white"/>
</clipPath>
</defs>
</svg>
