<svg width="40" height="40" viewBox="0 0 40 40" fill="none" xmlns="http://www.w3.org/2000/svg">
<g clip-path="url(#clip0_24_137)">
<path d="M20 40C31.0457 40 40 31.0457 40 20C40 8.9543 31.0457 0 20 0C8.9543 0 0 8.9543 0 20C0 31.0457 8.9543 40 20 40Z" fill="#FBAC0F"/>
<path d="M39.7426 23.2077L35.8947 19.3598L34.3979 18.4567L25.4928 9.53938L23.3687 8.67188L19.6063 17.884L14.6514 12.9818L4.10522 19.3597V20.7407L23.1214 39.7569C31.6383 38.422 38.3712 31.7125 39.7426 23.2077Z" fill="#BF7F00"/>
<path d="M4.10522 19.3599L14.6514 12.9819V15.9198L8.09772 19.9876L14.6514 23.9551V27.0184L4.10522 20.7409V19.3599Z" fill="#172858"/>
<path d="M35.8947 20.7409L25.3235 27.0184V23.9551L31.8772 19.9876L25.3235 15.9198V12.9819L35.8947 19.3599V20.7409Z" fill="#172858"/>
<path d="M16.5935 31.3271L14.4694 30.4597L23.3682 8.67003L25.4923 9.53752L16.5935 31.3271Z" fill="#172858"/>
<path d="M25.493 9.53961L20 22.9898V16.9207L23.3688 8.67188L25.493 9.53961Z" fill="#172858"/>
</g>
<defs>
<clipPath id="clip0_24_137">
<rect width="40" height="40" fill="white"/>
</clipPath>
</defs>
</svg>
