<svg width="84" height="110" viewBox="0 0 84 110" fill="none" xmlns="http://www.w3.org/2000/svg">
<path d="M80.9583 41.25H74.0833V32.0833C74.0833 14.3924 59.6911 0 42 0C24.3089 0 9.91674 14.3924 9.91674 32.0833V41.25H3.04174C2.74073 41.2498 2.44263 41.3089 2.16449 41.424C1.88636 41.5391 1.63364 41.7079 1.42079 41.9208C1.20795 42.1336 1.03915 42.3864 0.924046 42.6645C0.808946 42.9426 0.749803 43.2407 0.75 43.5417V100.833C0.75 105.889 4.86104 110 9.91674 110H74.0835C79.139 110 83.25 105.889 83.25 100.833V43.5417C83.2502 43.2407 83.1911 42.9426 83.076 42.6645C82.9609 42.3864 82.7921 42.1336 82.5792 41.9208C82.3664 41.7079 82.1136 41.5391 81.8355 41.424C81.5574 41.3089 81.2593 41.2498 80.9583 41.25ZM48.8617 89.1221C48.8971 89.4425 48.8647 89.7667 48.7663 90.0736C48.668 90.3806 48.5061 90.6633 48.2911 90.9035C48.0761 91.1436 47.8129 91.3357 47.5187 91.4672C47.2244 91.5987 46.9058 91.6667 46.5835 91.6667H37.4167C37.0944 91.6667 36.7758 91.5987 36.4815 91.4672C36.1873 91.3357 35.9241 91.1436 35.7091 90.9035C35.4941 90.6633 35.3322 90.3806 35.2339 90.0736C35.1356 89.7667 35.1031 89.4425 35.1385 89.1221L36.5842 76.1219C34.2366 74.4144 32.8335 71.7131 32.8335 68.75C32.8335 63.6945 36.9445 59.5833 42.0002 59.5833C47.0559 59.5833 51.167 63.6943 51.167 68.75C51.167 71.7131 49.7638 74.4144 47.4162 76.1219L48.8617 89.1221ZM60.3333 41.25H23.6667V32.0833C23.6667 21.9744 31.8912 13.75 42 13.75C52.1088 13.75 60.3333 21.9744 60.3333 32.0833V41.25Z" fill="white" fill-opacity="0.75"/>
</svg>
