<svg width="647" height="379" viewBox="0 0 647 379" fill="none" xmlns="http://www.w3.org/2000/svg">
<path d="M278.07 61.4558L265.164 59.8213" stroke="black" stroke-width="1.5" stroke-miterlimit="10" stroke-linecap="round" stroke-linejoin="round"/>
<path d="M579.04 361.705L589.261 368.912" stroke="black" stroke-width="1.5" stroke-miterlimit="10" stroke-linecap="round" stroke-linejoin="round"/>
<path d="M380.717 0.966309L386.383 11.4232" stroke="black" stroke-width="1.5" stroke-miterlimit="10" stroke-linecap="round" stroke-linejoin="round"/>
<path d="M9.39307 197.404L19.6145 204.611" stroke="black" stroke-width="1.5" stroke-miterlimit="10" stroke-linecap="round" stroke-linejoin="round"/>
<path d="M597.104 218.7L609.384 214.804" stroke="black" stroke-width="1.5" stroke-miterlimit="10" stroke-linecap="round" stroke-linejoin="round"/>
<path d="M437.962 362.732L440.91 374.042" stroke="black" stroke-width="1.5" stroke-miterlimit="10" stroke-linecap="round" stroke-linejoin="round"/>
<path d="M81.4641 341.498L75.7173 351.919" stroke="black" stroke-width="1.5" stroke-miterlimit="10" stroke-linecap="round" stroke-linejoin="round"/>
<path d="M612.258 65.4688L606.51 75.8906" stroke="black" stroke-width="1.5" stroke-miterlimit="10" stroke-linecap="round" stroke-linejoin="round"/>
<path d="M64.5486 146.057C64.5486 144.634 63.2536 143.481 61.656 143.481C60.0585 143.481 58.7634 144.634 58.7634 146.057C58.7634 147.48 60.0585 148.634 61.656 148.634C63.2536 148.634 64.5486 147.48 64.5486 146.057Z" stroke="black" stroke-width="1.5" stroke-miterlimit="10" stroke-linecap="round" stroke-linejoin="round"/>
<path d="M645.889 123.753C645.889 122.33 644.594 121.177 642.996 121.177C641.399 121.177 640.104 122.33 640.104 123.753C640.104 125.176 641.399 126.329 642.996 126.329C644.594 126.329 645.889 125.176 645.889 123.753Z" stroke="black" stroke-width="1.5" stroke-miterlimit="10" stroke-linecap="round" stroke-linejoin="round"/>
<path d="M103.375 22.3723C103.375 20.9494 102.08 19.7959 100.482 19.7959C98.8849 19.7959 97.5898 20.9494 97.5898 22.3723C97.5898 23.7952 98.8849 24.9486 100.482 24.9486C102.08 24.9486 103.375 23.7952 103.375 22.3723Z" stroke="black" stroke-width="1.5" stroke-miterlimit="10" stroke-linecap="round" stroke-linejoin="round"/>
<path d="M17.3963 308.001C17.3963 306.578 16.1012 305.425 14.5037 305.425C12.9061 305.425 11.6111 306.578 11.6111 308.001C11.6111 309.424 12.9061 310.578 14.5037 310.578C16.1012 310.578 17.3963 309.424 17.3963 308.001Z" stroke="black" stroke-width="1.5" stroke-miterlimit="10" stroke-linecap="round" stroke-linejoin="round"/>
<path d="M559.698 17.2199C559.698 15.797 558.403 14.6436 556.805 14.6436C555.208 14.6436 553.913 15.797 553.913 17.2199C553.913 18.6428 555.208 19.7963 556.805 19.7963C558.403 19.7963 559.698 18.6428 559.698 17.2199Z" stroke="black" stroke-width="1.5" stroke-miterlimit="10" stroke-linecap="round" stroke-linejoin="round"/>
<path d="M315.977 24.9489C315.977 23.526 314.682 22.3726 313.085 22.3726C311.487 22.3726 310.192 23.526 310.192 24.9489C310.192 26.3718 311.487 27.5253 313.085 27.5253C314.682 27.5245 315.977 26.3718 315.977 24.9489Z" stroke="black" stroke-width="1.5" stroke-miterlimit="10" stroke-linecap="round" stroke-linejoin="round"/>
<path d="M133.927 370.964C133.927 369.541 132.632 368.387 131.034 368.387C129.437 368.387 128.142 369.541 128.142 370.964C128.142 372.386 129.437 373.54 131.034 373.54C132.632 373.54 133.927 372.386 133.927 370.964Z" stroke="black" stroke-width="1.5" stroke-miterlimit="10" stroke-linecap="round" stroke-linejoin="round"/>
<path d="M615.15 288.73C615.15 287.307 613.855 286.154 612.258 286.154C610.66 286.154 609.365 287.307 609.365 288.73C609.365 290.153 610.66 291.307 612.258 291.307C613.855 291.307 615.15 290.153 615.15 288.73Z" stroke="black" stroke-width="1.5" stroke-miterlimit="10" stroke-linecap="round" stroke-linejoin="round"/>
<ellipse cx="624.183" cy="336.478" rx="1.3709" ry="1.22102" fill="black"/>
<ellipse cx="19.6145" cy="123.753" rx="1.3709" ry="1.22102" fill="black"/>
<ellipse cx="482.663" cy="17.2196" rx="1.3709" ry="1.22102" fill="black"/>
<ellipse cx="1.57719" cy="365.308" rx="1.3709" ry="1.22102" fill="black"/>
<ellipse cx="209.413" cy="14.6434" rx="1.3709" ry="1.22102" fill="black"/>
<ellipse cx="632.15" cy="17.2196" rx="1.3709" ry="1.22102" fill="black"/>
<ellipse cx="326.957" cy="377.569" rx="1.3709" ry="1.22102" fill="black"/>
<path d="M31.4534 14.9658L24.2224 24.6266" stroke="black" stroke-width="1.5" stroke-miterlimit="10" stroke-linecap="round" stroke-linejoin="round"/>
</svg>
