<svg width="41" height="17" viewBox="0 0 41 17" fill="none" xmlns="http://www.w3.org/2000/svg">
<path d="M34.6808 3.47266C19.1998 3.47266 19.9492 13.9254 5.96606 13.9254" stroke="black" stroke-width="1.5" stroke-miterlimit="10" stroke-linecap="round" stroke-linejoin="round"/>
<path d="M0.772217 13.9252C0.772217 12.6472 1.93475 11.6118 3.36962 11.6118C4.80357 11.6118 5.96701 12.6472 5.96701 13.9252C5.96701 15.2033 4.80449 16.2387 3.36962 16.2387C1.93475 16.2387 0.772217 15.2024 0.772217 13.9252Z" fill="black" stroke="black" stroke-width="1.5" stroke-miterlimit="10" stroke-linecap="round" stroke-linejoin="round"/>
<path d="M34.6809 3.47262C34.6809 2.19542 35.8434 1.15918 37.2783 1.15918C38.7122 1.15918 39.8757 2.19461 39.8757 3.47262C39.8757 4.75062 38.7131 5.78605 37.2783 5.78605C35.8443 5.78605 34.6809 4.75062 34.6809 3.47262Z" fill="black" stroke="black" stroke-width="1.5" stroke-miterlimit="10" stroke-linecap="round" stroke-linejoin="round"/>
</svg>
