<svg width="137" height="99" viewBox="0 0 137 99" fill="none" xmlns="http://www.w3.org/2000/svg">
<g opacity="0.45">
<path d="M129.114 97.7099H40.9175C37.2837 97.7099 34.3372 95.0856 34.3372 91.849V13.294C34.3372 10.0575 37.2837 7.43311 40.9175 7.43311H129.114C132.748 7.43311 135.695 10.0575 135.695 13.294V91.849C135.695 95.0864 132.749 97.7099 129.114 97.7099Z" fill="#FDCD6F"/>
<path d="M129.114 97.7099H40.9175C37.2837 97.7099 34.3372 95.0856 34.3372 91.849V13.294C34.3372 10.0575 37.2837 7.43311 40.9175 7.43311H129.114C132.748 7.43311 135.695 10.0575 135.695 13.294V91.849C135.695 95.0864 132.749 97.7099 129.114 97.7099Z" stroke="#FDCD6F" stroke-width="1.5" stroke-miterlimit="10" stroke-linecap="round" stroke-linejoin="round"/>
</g>
<path d="M122.717 92.0117H34.52C30.8862 92.0117 27.9397 89.3873 27.9397 86.1508V7.59578C27.9397 4.35925 30.8862 1.73486 34.52 1.73486H122.717C126.351 1.73486 129.297 4.35925 129.297 7.59578V86.1508C129.297 89.3881 126.352 92.0117 122.717 92.0117Z" fill="white"/>
<path d="M122.717 92.0117H34.52C30.8862 92.0117 27.9397 89.3873 27.9397 86.1508V7.59578C27.9397 4.35925 30.8862 1.73486 34.52 1.73486H122.717C126.351 1.73486 129.297 4.35925 129.297 7.59578V86.1508C129.297 89.3881 126.352 92.0117 122.717 92.0117Z" stroke="black" stroke-width="1.5" stroke-miterlimit="10" stroke-linecap="round" stroke-linejoin="round"/>
<path d="M36.4705 13.3876L41.6643 8.76074" stroke="black" stroke-width="1.5" stroke-miterlimit="10" stroke-linecap="round" stroke-linejoin="round"/>
<path d="M36.4705 8.76074L41.6643 13.3876" stroke="black" stroke-width="1.5" stroke-miterlimit="10" stroke-linecap="round" stroke-linejoin="round"/>
<path d="M6.07422 27.0449C21.5553 27.0449 20.8068 37.4977 34.789 37.4977" stroke="black" stroke-width="1.5" stroke-miterlimit="10" stroke-linecap="round" stroke-linejoin="round"/>
<path d="M39.9826 37.4975C39.9826 36.2203 38.8201 35.1841 37.3852 35.1841C35.9513 35.1841 34.7878 36.2195 34.7878 37.4975C34.7878 38.7755 35.9503 39.811 37.3852 39.811C38.8201 39.811 39.9826 38.7755 39.9826 37.4975Z" fill="black" stroke="black" stroke-width="1.5" stroke-miterlimit="10" stroke-linecap="round" stroke-linejoin="round"/>
<path d="M6.07419 27.0449C6.07419 25.7669 4.91169 24.7314 3.47682 24.7314C2.04195 24.7314 0.879395 25.7669 0.879395 27.0449C0.879395 28.3229 2.04195 29.3583 3.47682 29.3583C4.91078 29.3583 6.07419 28.3229 6.07419 27.0449Z" fill="black" stroke="black" stroke-width="1.5" stroke-miterlimit="10" stroke-linecap="round" stroke-linejoin="round"/>
<path d="M39.9826 51.8344C39.9826 50.5564 38.8201 49.521 37.3852 49.521C35.9513 49.521 34.7878 50.5564 34.7878 51.8344C34.7878 53.1116 35.9503 54.1479 37.3852 54.1479C38.8201 54.1479 39.9826 53.1116 39.9826 51.8344Z" fill="black" stroke="black" stroke-width="1.5" stroke-miterlimit="10" stroke-linecap="round" stroke-linejoin="round"/>
<path d="M6.07419 51.8344C6.07419 50.5564 4.91169 49.521 3.47682 49.521C2.04195 49.521 0.879395 50.5564 0.879395 51.8344C0.879395 53.1116 2.04195 54.1479 3.47682 54.1479C4.91078 54.1479 6.07419 53.1116 6.07419 51.8344Z" fill="black" stroke="black" stroke-width="1.5" stroke-miterlimit="10" stroke-linecap="round" stroke-linejoin="round"/>
<path d="M6.07422 51.8345H34.789" stroke="black" stroke-width="1.5" stroke-miterlimit="10" stroke-linecap="round" stroke-linejoin="round"/>
<path d="M6.07422 76.6227C21.5553 76.6227 20.8068 66.1699 34.789 66.1699" stroke="black" stroke-width="1.5" stroke-miterlimit="10" stroke-linecap="round" stroke-linejoin="round"/>
<path d="M39.9826 66.1699C39.9826 67.4479 38.8201 68.4833 37.3852 68.4833C35.9513 68.4833 34.7878 67.4479 34.7878 66.1699C34.7878 64.8919 35.9503 63.8564 37.3852 63.8564C38.8201 63.8573 39.9826 64.8927 39.9826 66.1699Z" fill="black" stroke="black" stroke-width="1.5" stroke-miterlimit="10" stroke-linecap="round" stroke-linejoin="round"/>
<path d="M6.07419 76.6225C6.07419 77.8997 4.91169 78.9359 3.47682 78.9359C2.04195 78.9359 0.879395 77.9005 0.879395 76.6225C0.879395 75.3445 2.04195 74.3091 3.47682 74.3091C4.91078 74.3091 6.07419 75.3453 6.07419 76.6225Z" fill="black" stroke="black" stroke-width="1.5" stroke-miterlimit="10" stroke-linecap="round" stroke-linejoin="round"/>
</svg>
