<svg width="156" height="24" viewBox="0 0 156 24" fill="none" xmlns="http://www.w3.org/2000/svg">
<g opacity="0.45">
<path d="M148.602 5.73193H13.1433C9.50951 5.73193 6.56299 8.35632 6.56299 11.5928V16.7212C6.56299 19.9585 9.50951 22.5821 13.1433 22.5821H148.602C152.237 22.5821 155.183 19.9585 155.183 16.7212V11.5928C155.183 8.35632 152.237 5.73193 148.602 5.73193Z" fill="#FDCD6F"/>
<path d="M148.602 5.73193H13.1433C9.50951 5.73193 6.56299 8.35632 6.56299 11.5928V16.7212C6.56299 19.9585 9.50951 22.5821 13.1433 22.5821H148.602C152.237 22.5821 155.183 19.9585 155.183 16.7212V11.5928C155.183 8.35632 152.237 5.73193 148.602 5.73193Z" stroke="#FDCD6F" stroke-width="1.5" stroke-miterlimit="10" stroke-linecap="round" stroke-linejoin="round"/>
</g>
<path d="M143.498 1.18652H8.03905C4.40526 1.18652 1.45874 3.81091 1.45874 7.04744V12.1757C1.45874 15.4131 4.40526 18.0367 8.03905 18.0367H143.499C147.134 18.0367 150.079 15.4123 150.079 12.1757V7.04744C150.078 3.8101 147.133 1.18652 143.498 1.18652Z" fill="white"/>
<path d="M143.498 1.18652H8.03905C4.40526 1.18652 1.45874 3.81091 1.45874 7.04744V12.1757C1.45874 15.4131 4.40526 18.0367 8.03905 18.0367H143.499C147.134 18.0367 150.079 15.4123 150.079 12.1757V7.04744C150.078 3.8101 147.133 1.18652 143.498 1.18652Z" stroke="black" stroke-width="1.5" stroke-miterlimit="10" stroke-linecap="round" stroke-linejoin="round"/>
<path d="M139.102 6.86035H40.5561C38.8498 6.86035 37.467 8.09196 37.467 9.61172C37.467 11.1315 38.8498 12.3631 40.5561 12.3631H139.102C140.808 12.3631 142.191 11.1315 142.191 9.61172C142.191 8.09196 140.807 6.86035 139.102 6.86035Z" fill="#022795" fill-opacity="0.33"/>
<path d="M62.7253 6.86035H40.5561C38.8498 6.86035 37.467 8.09196 37.467 9.61172C37.467 11.1315 38.8498 12.3631 40.5561 12.3631H62.7253V6.86035Z" fill="#FDCD6F"/>
<path d="M28.875 7.34521H23.6802V11.9721H28.875V7.34521Z" stroke="black" stroke-width="1.5" stroke-miterlimit="10" stroke-linecap="round" stroke-linejoin="round"/>
</svg>
