<svg width="156" height="24" viewBox="0 0 156 24" fill="none" xmlns="http://www.w3.org/2000/svg">
<g opacity="0.45">
<path d="M148.602 5.65869H13.1433C9.50951 5.65869 6.56299 8.28308 6.56299 11.5196V16.6479C6.56299 19.8844 9.50951 22.5088 13.1433 22.5088H148.602C152.237 22.5088 155.183 19.8844 155.183 16.6479V11.5196C155.183 8.28308 152.237 5.65869 148.602 5.65869Z" fill="#FDCD6F"/>
<path d="M148.602 5.65869H13.1433C9.50951 5.65869 6.56299 8.28308 6.56299 11.5196V16.6479C6.56299 19.8844 9.50951 22.5088 13.1433 22.5088H148.602C152.237 22.5088 155.183 19.8844 155.183 16.6479V11.5196C155.183 8.28308 152.237 5.65869 148.602 5.65869Z" stroke="#FDCD6F" stroke-width="1.5" stroke-miterlimit="10" stroke-linecap="round" stroke-linejoin="round"/>
</g>
<path d="M143.498 1.1123H8.03905C4.40526 1.1123 1.45874 3.73669 1.45874 6.97322V12.1015C1.45874 15.3381 4.40526 17.9624 8.03905 17.9624H143.499C147.134 17.9624 150.079 15.3381 150.079 12.1015V6.97322C150.078 3.73669 147.133 1.1123 143.498 1.1123Z" fill="white"/>
<path d="M143.498 1.1123H8.03905C4.40526 1.1123 1.45874 3.73669 1.45874 6.97322V12.1015C1.45874 15.3381 4.40526 17.9624 8.03905 17.9624H143.499C147.134 17.9624 150.079 15.3381 150.079 12.1015V6.97322C150.078 3.73669 147.133 1.1123 143.498 1.1123Z" stroke="black" stroke-width="1.5" stroke-miterlimit="10" stroke-linecap="round" stroke-linejoin="round"/>
<path d="M139.102 6.78613H40.5561C38.8498 6.78613 37.467 8.01773 37.467 9.5375C37.467 11.0573 38.8498 12.2889 40.5561 12.2889H139.102C140.808 12.2889 142.191 11.0573 142.191 9.5375C142.191 8.01854 140.807 6.78613 139.102 6.78613Z" fill="#022795" fill-opacity="0.33"/>
<path d="M135.347 6.78613H40.5561C38.8498 6.78613 37.467 8.01773 37.467 9.5375C37.467 11.0573 38.8498 12.2889 40.5561 12.2889H135.348L135.347 6.78613Z" fill="#FDCD6F"/>
<path d="M28.875 7.27197H23.6802V11.8988H28.875V7.27197Z" stroke="black" stroke-width="1.5" stroke-miterlimit="10" stroke-linecap="round" stroke-linejoin="round"/>
</svg>
