<svg width="86" height="86" viewBox="0 0 86 86" fill="none" xmlns="http://www.w3.org/2000/svg">
<path fill-rule="evenodd" clip-rule="evenodd" d="M62.2939 13.8463L68.7987 9.13662L76.8632 17.2011L72.1535 23.7059C74.5933 27.3843 76.3555 31.5514 77.262 36.0287L85.1875 37.2975V48.7025L79.547 49.6053C76.7256 47.4612 73.3548 46.003 69.6832 45.4775C69.7581 44.6615 69.7982 43.8355 69.7982 43C69.7982 28.1997 57.8003 16.2018 43 16.2018C28.1997 16.2018 16.2018 28.1997 16.2018 43C16.2018 57.8003 28.1997 69.7982 43 69.7982C43.8355 69.7982 44.6615 69.7579 45.4775 69.6832C46.0032 73.355 47.4612 76.7254 49.6053 79.547L48.7025 85.1875H37.2975L36.0289 77.2622C31.5512 76.3561 27.385 74.5932 23.7061 72.1537L17.2013 76.8634L9.13662 68.7989L13.8463 62.2941C11.4065 58.6155 9.64428 54.4486 8.73777 49.9713L0.8125 48.7025V37.2975L8.7376 36.0289C9.64375 31.5512 11.4068 27.385 13.8463 23.7061L9.13662 17.2013L17.2013 9.1368L23.7061 13.8465C27.3846 11.4067 31.5515 9.64445 36.0289 8.73795L37.2975 0.8125H48.7025L49.9711 8.7376C54.4483 9.64428 58.615 11.4067 62.2939 13.8463ZM56.1122 69.35L61.9689 75.2066C63.0354 76.2731 64.7645 76.2731 65.831 75.2066C71.0702 69.9675 71.9403 68.9827 77.1546 63.7163C78.2151 62.6499 78.2104 60.9256 77.1439 59.865C76.0776 58.8043 74.3532 58.8092 73.2927 59.8755L63.8958 69.4092L59.9745 65.4879C58.9082 64.4214 57.1789 64.4214 56.1126 65.4879C55.0458 66.5543 55.0458 68.2835 56.1122 69.35ZM66.6296 48.0718C56.3803 48.0718 48.0716 56.3805 48.0716 66.6297C48.0718 76.8788 56.3805 85.1875 66.6296 85.1875C76.8788 85.1875 85.1875 76.8788 85.1875 66.6296C85.1875 56.3805 76.8788 48.0718 66.6296 48.0718ZM63.8812 65.4174L61.9629 63.4993C59.7989 61.3354 56.2877 61.3354 54.1236 63.4993C51.9596 65.6633 51.9596 69.1747 54.1236 71.3388L59.9803 77.1954C62.1443 79.3595 65.6557 79.3595 67.8198 77.1954C71.6265 73.3889 75.3638 69.5196 79.1526 65.6958C81.3019 63.5267 81.2932 60.0249 79.1273 57.8707C76.9578 55.7132 73.4399 55.7199 71.2897 57.9012L63.8812 65.4174ZM30.1059 58.8328H34.0793V49.1975C34.0793 48.8246 34.2274 48.4669 34.4912 48.2032C34.7549 47.9394 35.1126 47.7913 35.4855 47.7913C35.8585 47.7913 36.2162 47.9394 36.4799 48.2032C36.7436 48.4669 36.8918 48.8246 36.8918 49.1975V58.8328H46.7267C47.3423 57.2643 48.1416 55.7743 49.108 54.394V49.1975C49.108 48.8246 49.2562 48.4669 49.5199 48.2032C49.7837 47.9394 50.1413 47.7913 50.5143 47.7913C50.8873 47.7913 51.2449 47.9394 51.5087 48.2032C51.7724 48.4669 51.9205 48.8246 51.9205 49.1975V51.1276C53.3687 49.7528 55.002 48.5872 56.773 47.6647V46.3216C56.773 43.2566 54.0431 41.5161 50.9371 40.7456C45.7216 39.4519 40.4343 39.3643 35.063 40.7456C31.9643 41.5421 29.227 43.2549 29.227 46.3216V57.9542C29.2276 58.1871 29.3204 58.4103 29.4851 58.575C29.6498 58.7396 29.873 58.8323 30.1059 58.8328ZM43 23.7648C39.577 23.7648 36.8021 25.7156 36.8021 30.2144C36.8021 34.7131 39.5768 38.3603 43 38.3603C46.423 38.3603 49.1979 34.7131 49.1979 30.2144C49.1979 25.7156 46.423 23.7648 43 23.7648Z" fill="#FBAC0F"/>
</svg>
