<svg width="16" height="29" viewBox="0 0 16 29" fill="none" xmlns="http://www.w3.org/2000/svg">
<path d="M5.35429 28.3125C4.63798 28.3125 4.01123 27.9313 3.69784 27.296C3.29491 26.4489 3.74257 25.4325 4.63796 25.0936C6.07059 24.5007 7.36891 23.696 8.48815 22.6372C9.60739 21.5784 10.5028 20.3501 11.0848 18.9948C11.7116 17.5972 12.025 16.0725 12.025 14.5055C12.025 12.9384 11.7116 11.4561 11.0848 10.0161C10.458 8.66079 9.60739 7.43256 8.48815 6.37374C7.36891 5.31492 6.07059 4.46786 4.63796 3.91727C3.74257 3.5361 3.29491 2.56197 3.69784 1.71491C4.10077 0.867855 5.13049 0.444364 6.02588 0.825539C7.9062 1.58789 9.60743 2.64671 11.0401 4.00199C12.4727 5.35728 13.6367 6.96667 14.3978 8.74548C15.2036 10.5666 15.6513 12.5573 15.6513 14.5479C15.6513 16.5384 15.2484 18.529 14.3978 20.3502C13.5919 22.129 12.4727 23.7384 11.0401 25.0936C9.60743 26.4489 7.9062 27.5501 6.02588 28.2701C5.8468 28.2701 5.62291 28.3125 5.35429 28.3125Z" fill="#0E1F51" fill-opacity="0.960784"/>
<path d="M1.99752 21.4946C1.32598 21.4946 0.744014 21.1134 0.430627 20.5205C0.0724698 19.7158 0.475382 18.784 1.326 18.4452C1.86324 18.2334 2.35571 17.8946 2.80341 17.5134C3.20634 17.1323 3.5645 16.6664 3.78835 16.1158C4.01219 15.5652 4.14644 15.0146 4.14644 14.4216C4.14644 13.8287 4.01219 13.2782 3.78835 12.7276C3.5645 12.2193 3.20634 11.7534 2.80341 11.3299C2.35571 10.9064 1.86324 10.6099 1.326 10.3982C0.475382 10.0593 0.0724698 9.12761 0.430627 8.32291C0.788783 7.5182 1.77367 7.13698 2.62429 7.4758C3.56445 7.85698 4.41507 8.40758 5.13138 9.08523C5.84769 9.76287 6.42972 10.5676 6.83265 11.457C7.23557 12.3887 7.45942 13.3629 7.45942 14.3793C7.45942 15.3958 7.23557 16.3699 6.83265 17.3017C6.42972 18.1911 5.84769 18.9958 5.13138 19.6734C4.41507 20.3511 3.56445 20.9017 2.62429 21.2828C2.44521 21.4522 2.22137 21.4946 1.99752 21.4946Z" fill="#0E1F51" fill-opacity="0.960784"/>
</svg>
