<svg width="188" height="137" viewBox="0 0 188 137" fill="none" xmlns="http://www.w3.org/2000/svg">
<g opacity="0.45">
<path d="M179.773 136.073H47.7934C44.1596 136.073 41.2131 133.449 41.2131 130.212V12.6612C41.2131 9.42469 44.1596 6.80029 47.7934 6.80029H179.773C183.407 6.80029 186.353 9.42469 186.353 12.6612V130.212C186.353 133.449 183.408 136.073 179.773 136.073Z" fill="#FDCD6F"/>
<path d="M179.773 136.073H47.7934C44.1596 136.073 41.2131 133.449 41.2131 130.212V12.6612C41.2131 9.42469 44.1596 6.80029 47.7934 6.80029H179.773C183.407 6.80029 186.353 9.42469 186.353 12.6612V130.212C186.353 133.449 183.408 136.073 179.773 136.073Z" stroke="#FDCD6F" stroke-width="1.5" stroke-miterlimit="10" stroke-linecap="round" stroke-linejoin="round"/>
</g>
<path d="M173.376 130.375H41.396C37.7622 130.375 34.8157 127.751 34.8157 124.514V6.96298C34.8157 3.72645 37.7622 1.10205 41.396 1.10205H173.376C177.009 1.10205 179.956 3.72645 179.956 6.96298V124.514C179.956 127.751 177.01 130.375 173.376 130.375Z" fill="white"/>
<path d="M173.376 130.375H41.396C37.7622 130.375 34.8157 127.751 34.8157 124.514V6.96298C34.8157 3.72645 37.7622 1.10205 41.396 1.10205H173.376C177.009 1.10205 179.956 3.72645 179.956 6.96298V124.514C179.956 127.751 177.01 130.375 173.376 130.375Z" stroke="black" stroke-width="1.5" stroke-miterlimit="10" stroke-linecap="round" stroke-linejoin="round"/>
<path d="M43.3455 12.754L48.5403 8.12793" stroke="black" stroke-width="1.5" stroke-miterlimit="10" stroke-linecap="round" stroke-linejoin="round"/>
<path d="M43.3455 8.12793L48.5403 12.754" stroke="black" stroke-width="1.5" stroke-miterlimit="10" stroke-linecap="round" stroke-linejoin="round"/>
<path d="M63.0935 44.4546C57.0003 44.4546 52.0605 48.8544 52.0605 54.2814V56.66H74.1274V54.2814C74.1265 48.8544 69.1867 44.4546 63.0935 44.4546Z" fill="#FDCD6F"/>
<path d="M69.3548 36.9185C69.3548 33.8382 66.5518 31.3408 63.0926 31.3408C59.6343 31.3408 56.8303 33.8382 56.8303 36.9185C56.8303 39.9987 59.6343 42.4961 63.0926 42.4961C66.5518 42.4961 69.3548 39.9987 69.3548 36.9185Z" fill="#FDCD6F"/>
<path d="M77.6471 22.1743H48.5403V56.6609H77.6471V22.1743Z" stroke="black" stroke-width="1.5" stroke-miterlimit="10" stroke-linecap="round" stroke-linejoin="round"/>
<path d="M84.8629 49.2539H116.876V44.2355H84.8629V49.2539Z" fill="#FDCD6F"/>
<path d="M84.8633 56.6602H101.193V51.6418H84.8633V56.6602Z" fill="#FDCD6F"/>
<path d="M166.233 53.5996C166.233 51.9089 164.694 50.5381 162.795 50.5381C160.897 50.5381 159.358 51.9089 159.358 53.5996C159.358 55.2903 160.897 56.6611 162.795 56.6611C164.694 56.6611 166.233 55.2903 166.233 53.5996Z" stroke="black" stroke-width="1.5" stroke-miterlimit="10" stroke-linecap="round" stroke-linejoin="round"/>
<path d="M166.233 64.6914H48.5403V85.3015H166.233V64.6914Z" fill="#022795" fill-opacity="0.33"/>
<path d="M159.999 69.3613H54.7732V72.9601H159.999V69.3613Z" fill="#FDCD6F"/>
<path d="M94.5493 77.8818H54.7732V81.4806H94.5493V77.8818Z" fill="white"/>
<path d="M166.233 93.3325H48.5403V113.943H166.233V93.3325Z" fill="#022795" fill-opacity="0.33"/>
<path d="M102.921 98.0015H54.7732V101.6H102.921V98.0015Z" fill="#FDCD6F"/>
<path d="M159.999 98.0015H106.481V101.6H159.999V98.0015Z" fill="white"/>
<path d="M115.158 106.522H76.7175V110.121H115.158V106.522Z" fill="white"/>
<path d="M73.1569 106.522H54.7732V110.121H73.1569V106.522Z" fill="white"/>
<path d="M40.0665 69.4154C26.0834 69.4154 26.8328 58.9626 11.3517 58.9626C7.18605 58.9626 3.80908 55.9548 3.80908 52.2437V49.5664" stroke="black" stroke-width="1.5" stroke-miterlimit="10" stroke-linecap="round" stroke-linejoin="round"/>
<path d="M45.2612 69.4155C45.2612 68.1383 44.0986 67.1021 42.6638 67.1021C41.2289 67.1021 40.0664 68.1375 40.0664 69.4155C40.0664 70.6935 41.2289 71.7289 42.6638 71.7289C44.0977 71.7289 45.2612 70.6935 45.2612 69.4155Z" fill="black" stroke="black" stroke-width="1.5" stroke-miterlimit="10" stroke-linecap="round" stroke-linejoin="round"/>
<path d="M6.40525 47.2529C6.40525 45.9757 5.24272 44.9395 3.80785 44.9395C2.37298 44.9395 1.21045 45.9749 1.21045 47.2529C1.21045 48.5301 2.37298 49.5663 3.80785 49.5663C5.24272 49.5663 6.40525 48.5309 6.40525 47.2529Z" fill="black" stroke="black" stroke-width="1.5" stroke-miterlimit="10" stroke-linecap="round" stroke-linejoin="round"/>
</svg>
