<svg width="192" height="28" viewBox="0 0 192 28" fill="none" xmlns="http://www.w3.org/2000/svg">
<path d="M5.17957 23.9585C3.83648 23.1538 2.76191 21.9255 2.00083 20.3585C1.23975 18.7914 0.836914 16.9279 0.836914 14.7679C0.836914 12.6079 1.23975 10.7444 2.00083 9.17733C2.76191 7.61028 3.83648 6.42438 5.17957 5.57732C6.52266 4.77262 8.04482 4.34912 9.79084 4.34912C11.4921 4.34912 13.059 4.77262 14.4021 5.57732C15.7452 6.38202 16.8196 7.61028 17.5807 9.17733C18.3418 10.7444 18.7448 12.6079 18.7448 14.7679C18.7448 16.9279 18.3418 18.7914 17.5807 20.3585C16.8196 21.9255 15.7452 23.1114 14.4021 23.9585C13.059 24.7632 11.4921 25.1867 9.79084 25.1867C8.04482 25.1867 6.52266 24.8055 5.17957 23.9585ZM13.3723 20.1467C14.2677 18.9608 14.7154 17.182 14.7154 14.7679C14.7154 12.3961 14.2677 10.6173 13.3723 9.38911C12.477 8.20323 11.2682 7.6103 9.74602 7.6103C8.22386 7.6103 7.01513 8.20323 6.16451 9.38911C5.26912 10.575 4.82134 12.3538 4.82134 14.7679C4.82134 17.1396 5.26912 18.9184 6.16451 20.1467C7.0599 21.3326 8.26862 21.9255 9.74602 21.9255C11.2682 21.9255 12.477 21.3326 13.3723 20.1467Z" fill="#0E1F51" fill-opacity="0.960784"/>
<path d="M34.7733 14.8957C35.803 15.9545 36.3403 17.2251 36.3403 18.7922C36.3403 19.9781 36.027 21.0369 35.4002 22.011C34.7734 22.9851 33.7884 23.7474 32.5349 24.298C31.2365 24.8486 29.7143 25.1451 27.8788 25.1451C26.3566 25.1451 24.8793 24.9333 23.4466 24.5098C22.014 24.0863 20.8052 23.5357 19.8203 22.7733L21.5216 19.851C22.2827 20.4863 23.2228 20.9522 24.3421 21.3333C25.4613 21.6721 26.5805 21.8839 27.7893 21.8839C29.1772 21.8839 30.2964 21.6298 31.1022 21.0792C31.9081 20.5286 32.3111 19.7663 32.3111 18.8345C32.3111 17.9028 31.9081 17.1404 31.147 16.6322C30.3859 16.0816 29.2219 15.8275 27.655 15.8275H25.6851V13.2439L30.565 7.78046H20.8052V4.604H35.4002V7.14519L30.2069 12.9898C32.2215 13.2439 33.7436 13.8792 34.7733 14.8957Z" fill="#0E1F51" fill-opacity="0.960784"/>
<path d="M39.563 13.3703C39.0705 12.9045 38.8467 12.3539 38.8467 11.6339C38.8467 10.9139 39.0705 10.3209 39.563 9.89739C40.0555 9.47386 40.6375 9.21973 41.3538 9.21973C42.0701 9.21973 42.6521 9.43151 43.1445 9.89739C43.637 10.3209 43.8609 10.9139 43.8609 11.6339C43.8609 12.3115 43.637 12.9045 43.1445 13.3703C42.6521 13.8362 42.0701 14.0479 41.3538 14.0479C40.6375 14.0903 40.0555 13.8362 39.563 13.3703ZM39.563 24.4243C39.0705 23.9585 38.8467 23.4079 38.8467 22.6879C38.8467 21.9679 39.0705 21.375 39.563 20.9515C40.0555 20.5279 40.6375 20.2738 41.3538 20.2738C42.0701 20.2738 42.6521 20.4856 43.1445 20.9515C43.637 21.375 43.8609 21.9679 43.8609 22.6879C43.8609 23.3656 43.637 23.9585 43.1445 24.4243C42.6521 24.8902 42.0701 25.102 41.3538 25.102C40.6375 25.102 40.0555 24.8902 39.563 24.4243Z" fill="#0E1F51" fill-opacity="0.960784"/>
<path d="M65.5306 20.3169H61.7251V24.9333H57.875V20.3169H46.1006V17.691L56.6663 4.604H60.9193L50.9805 17.0981H58.0093V13.0322H61.7251V17.0981H65.5306V20.3169Z" fill="#0E1F51" fill-opacity="0.960784"/>
<path d="M82.0049 4.64633V7.18752L73.6778 24.9333H69.4246L77.4832 7.82279H69.0665V11.2534H65.3506V4.604H82.0049V4.64633Z" fill="#0E1F51" fill-opacity="0.960784"/>
<path d="M100.761 0.494629H104.209L94.0908 27.7698H90.6436L100.761 0.494629Z" fill="#0E1F51" fill-opacity="0.960784"/>
<path d="M120.148 4.64502V24.932H116.163V7.82148H111.642V4.64502H120.148Z" fill="#0E1F51" fill-opacity="0.960784"/>
<path d="M128.741 23.9585C127.398 23.1538 126.324 21.9255 125.562 20.3585C124.801 18.7914 124.398 16.9279 124.398 14.7679C124.398 12.6079 124.801 10.7444 125.562 9.17733C126.324 7.61028 127.398 6.42438 128.741 5.57732C130.084 4.77262 131.606 4.34912 133.352 4.34912C135.054 4.34912 136.621 4.77262 137.964 5.57732C139.307 6.38202 140.381 7.61028 141.142 9.17733C141.903 10.7444 142.306 12.6079 142.306 14.7679C142.306 16.9279 141.903 18.7914 141.142 20.3585C140.381 21.9255 139.307 23.1114 137.964 23.9585C136.621 24.7632 135.054 25.1867 133.352 25.1867C131.606 25.1867 130.084 24.8055 128.741 23.9585ZM136.979 20.1467C137.874 18.9608 138.322 17.182 138.322 14.7679C138.322 12.3961 137.874 10.6173 136.979 9.38911C136.083 8.20323 134.875 7.6103 133.352 7.6103C131.83 7.6103 130.621 8.20323 129.771 9.38911C128.875 10.575 128.428 12.3538 128.428 14.7679C128.428 17.1396 128.875 18.9184 129.771 20.1467C130.666 21.3326 131.875 21.9255 133.352 21.9255C134.875 21.9255 136.083 21.3326 136.979 20.1467Z" fill="#0E1F51" fill-opacity="0.960784"/>
<path d="M145.621 13.3703C145.128 12.9045 144.904 12.3539 144.904 11.6339C144.904 10.9139 145.128 10.3209 145.621 9.89739C146.113 9.47386 146.695 9.21973 147.411 9.21973C148.128 9.21973 148.71 9.43151 149.202 9.89739C149.695 10.3209 149.918 10.9139 149.918 11.6339C149.918 12.3115 149.695 12.9045 149.202 13.3703C148.71 13.8362 148.128 14.0479 147.411 14.0479C146.695 14.0903 146.113 13.8362 145.621 13.3703ZM145.621 24.4243C145.128 23.9585 144.904 23.4079 144.904 22.6879C144.904 21.9679 145.128 21.375 145.621 20.9515C146.113 20.5279 146.695 20.2738 147.411 20.2738C148.128 20.2738 148.71 20.4856 149.202 20.9515C149.695 21.375 149.918 21.9679 149.918 22.6879C149.918 23.3656 149.695 23.9585 149.202 24.4243C148.71 24.8902 148.128 25.102 147.411 25.102C146.695 25.102 146.113 24.8902 145.621 24.4243Z" fill="#0E1F51" fill-opacity="0.960784"/>
<path d="M156.815 23.9585C155.472 23.1538 154.398 21.9255 153.637 20.3585C152.875 18.7914 152.473 16.9279 152.473 14.7679C152.473 12.6079 152.875 10.7444 153.637 9.17733C154.398 7.61028 155.472 6.42438 156.815 5.57732C158.158 4.77262 159.681 4.34912 161.427 4.34912C163.128 4.34912 164.695 4.77262 166.038 5.57732C167.381 6.38202 168.455 7.61028 169.216 9.17733C169.978 10.7444 170.38 12.6079 170.38 14.7679C170.38 16.9279 169.978 18.7914 169.216 20.3585C168.455 21.9255 167.381 23.1114 166.038 23.9585C164.695 24.7632 163.128 25.1867 161.427 25.1867C159.725 25.1867 158.203 24.8055 156.815 23.9585ZM165.053 20.1467C165.948 18.9608 166.396 17.182 166.396 14.7679C166.396 12.3961 165.948 10.6173 165.053 9.38911C164.158 8.20323 162.949 7.6103 161.427 7.6103C159.904 7.6103 158.696 8.20323 157.845 9.38911C156.95 10.575 156.502 12.3538 156.502 14.7679C156.502 17.1396 156.95 18.9184 157.845 20.1467C158.74 21.3326 159.949 21.9255 161.427 21.9255C162.949 21.9255 164.158 21.3326 165.053 20.1467Z" fill="#0E1F51" fill-opacity="0.960784"/>
<path d="M177.455 23.9585C176.112 23.1538 175.037 21.9255 174.276 20.3585C173.515 18.7914 173.112 16.9279 173.112 14.7679C173.112 12.6079 173.515 10.7444 174.276 9.17733C175.037 7.61028 176.112 6.42438 177.455 5.57732C178.798 4.77262 180.32 4.34912 182.066 4.34912C183.767 4.34912 185.334 4.77262 186.677 5.57732C188.021 6.38202 189.095 7.61028 189.856 9.17733C190.617 10.7444 191.02 12.6079 191.02 14.7679C191.02 16.9279 190.617 18.7914 189.856 20.3585C189.095 21.9255 188.021 23.1114 186.677 23.9585C185.334 24.7632 183.767 25.1867 182.066 25.1867C180.32 25.1867 178.798 24.8055 177.455 23.9585ZM185.693 20.1467C186.588 18.9608 187.036 17.182 187.036 14.7679C187.036 12.3961 186.588 10.6173 185.693 9.38911C184.797 8.20323 183.588 7.6103 182.066 7.6103C180.544 7.6103 179.335 8.20323 178.485 9.38911C177.589 10.575 177.142 12.3538 177.142 14.7679C177.142 17.1396 177.589 18.9184 178.485 20.1467C179.38 21.3326 180.589 21.9255 182.066 21.9255C183.588 21.9255 184.797 21.3326 185.693 20.1467Z" fill="#0E1F51" fill-opacity="0.960784"/>
</svg>
