<svg width="156" height="24" viewBox="0 0 156 24" fill="none" xmlns="http://www.w3.org/2000/svg">
<g opacity="0.45">
<path d="M148.602 6.19531H13.1433C9.50951 6.19531 6.56299 8.8197 6.56299 12.0562V17.1845C6.56299 20.4211 9.50951 23.0454 13.1433 23.0454H148.602C152.237 23.0454 155.183 20.4211 155.183 17.1845V12.0562C155.183 8.8197 152.237 6.19531 148.602 6.19531Z" fill="#FDCD6F"/>
<path d="M148.602 6.19531H13.1433C9.50951 6.19531 6.56299 8.8197 6.56299 12.0562V17.1845C6.56299 20.4211 9.50951 23.0454 13.1433 23.0454H148.602C152.237 23.0454 155.183 20.4211 155.183 17.1845V12.0562C155.183 8.8197 152.237 6.19531 148.602 6.19531Z" stroke="#FDCD6F" stroke-width="1.5" stroke-miterlimit="10" stroke-linecap="round" stroke-linejoin="round"/>
</g>
<path d="M143.498 1.64893H8.03905C4.40526 1.64893 1.45874 4.27331 1.45874 7.50984V12.6381C1.45874 15.8747 4.40526 18.4991 8.03905 18.4991H143.499C147.134 18.4991 150.079 15.8747 150.079 12.6381V7.50984C150.078 4.27331 147.133 1.64893 143.498 1.64893Z" fill="white"/>
<path d="M143.498 1.64893H8.03905C4.40526 1.64893 1.45874 4.27331 1.45874 7.50984V12.6381C1.45874 15.8747 4.40526 18.4991 8.03905 18.4991H143.499C147.134 18.4991 150.079 15.8747 150.079 12.6381V7.50984C150.078 4.27331 147.133 1.64893 143.498 1.64893Z" stroke="black" stroke-width="1.5" stroke-miterlimit="10" stroke-linecap="round" stroke-linejoin="round"/>
<path d="M139.102 7.32324H40.5561C38.8498 7.32324 37.467 8.55485 37.467 10.0746C37.467 11.5944 38.8498 12.826 40.5561 12.826H139.102C140.808 12.826 142.191 11.5944 142.191 10.0746C142.191 8.55485 140.807 7.32324 139.102 7.32324Z" fill="#022795" fill-opacity="0.33"/>
<path d="M119.873 7.32324H40.5561C38.8498 7.32324 37.467 8.55485 37.467 10.0746C37.467 11.5944 38.8498 12.826 40.5561 12.826H119.873V7.32324Z" fill="#FDCD6F"/>
<path d="M28.875 7.80859H23.6802V12.4355H28.875V7.80859Z" stroke="black" stroke-width="1.5" stroke-miterlimit="10" stroke-linecap="round" stroke-linejoin="round"/>
</svg>
