<svg width="210" height="105" viewBox="0 0 210 105" fill="none" xmlns="http://www.w3.org/2000/svg">
<g opacity="0.45">
<path d="M116.628 93.9666H14.6438C11.0091 93.9666 8.06348 91.3422 8.06348 88.1057V44.2408C8.06348 41.0035 11.0091 38.3799 14.6438 38.3799H116.628C120.262 38.3799 123.209 41.0043 123.209 44.2408V88.1057C123.209 91.3422 120.263 93.9666 116.628 93.9666Z" fill="#FDCD6F"/>
<path d="M116.628 93.9666H14.6438C11.0091 93.9666 8.06348 91.3422 8.06348 88.1057V44.2408C8.06348 41.0035 11.0091 38.3799 14.6438 38.3799H116.628C120.262 38.3799 123.209 41.0043 123.209 44.2408V88.1057C123.209 91.3422 120.263 93.9666 116.628 93.9666Z" stroke="#FDCD6F" stroke-width="1.5" stroke-miterlimit="10" stroke-linecap="round" stroke-linejoin="round"/>
</g>
<path d="M110.231 88.2684H8.24606C4.61137 88.2684 1.66577 85.644 1.66577 82.4074V38.5426C1.66577 35.3052 4.61137 32.6816 8.24606 32.6816H110.231C113.864 32.6816 116.811 35.306 116.811 38.5426V82.4074C116.811 85.644 113.865 88.2684 110.231 88.2684Z" fill="white"/>
<path d="M110.231 88.2684H8.24606C4.61137 88.2684 1.66577 85.644 1.66577 82.4074V38.5426C1.66577 35.3052 4.61137 32.6816 8.24606 32.6816H110.231C113.864 32.6816 116.811 35.306 116.811 38.5426V82.4074C116.811 85.644 113.865 88.2684 110.231 88.2684Z" stroke="black" stroke-width="1.5" stroke-miterlimit="10" stroke-linecap="round" stroke-linejoin="round"/>
<path d="M10.1956 44.3344L15.3903 39.7075" stroke="black" stroke-width="1.5" stroke-miterlimit="10" stroke-linecap="round" stroke-linejoin="round"/>
<path d="M10.1956 39.7075L15.3903 44.3344" stroke="black" stroke-width="1.5" stroke-miterlimit="10" stroke-linecap="round" stroke-linejoin="round"/>
<path d="M59.549 35.7302C59.549 23.2757 47.8132 23.9432 47.8132 10.1546C47.8132 6.44433 44.4363 3.43652 40.2706 3.43652H37.2646" stroke="black" stroke-width="1.5" stroke-miterlimit="10" stroke-linecap="round" stroke-linejoin="round"/>
<path d="M59.5491 40.3568C58.1142 40.3568 56.9517 39.3214 56.9517 38.0434C56.9517 36.7654 58.1142 35.73 59.5491 35.73C60.983 35.73 62.1464 36.7654 62.1464 38.0434C62.1464 39.3214 60.9839 40.3568 59.5491 40.3568Z" fill="black" stroke="black" stroke-width="1.5" stroke-miterlimit="10" stroke-linecap="round" stroke-linejoin="round"/>
<path d="M34.6675 5.74991C33.2335 5.74991 32.0701 4.71447 32.0701 3.43646C32.0701 2.15846 33.2326 1.12305 34.6675 1.12305C36.1023 1.12305 37.2648 2.15846 37.2648 3.43646C37.2648 4.71366 36.1014 5.74991 34.6675 5.74991Z" fill="black" stroke="black" stroke-width="1.5" stroke-miterlimit="10" stroke-linecap="round" stroke-linejoin="round"/>
<g opacity="0.45">
<path d="M202.571 103.468H148.608C144.974 103.468 142.028 100.843 142.028 97.6069V71.5274C142.028 68.2909 144.974 65.6665 148.608 65.6665H202.571C206.205 65.6665 209.151 68.2909 209.151 71.5274V97.6069C209.151 100.843 206.205 103.468 202.571 103.468Z" fill="#FDCD6F"/>
<path d="M202.571 103.468H148.608C144.974 103.468 142.028 100.843 142.028 97.6069V71.5274C142.028 68.2909 144.974 65.6665 148.608 65.6665H202.571C206.205 65.6665 209.151 68.2909 209.151 71.5274V97.6069C209.151 100.843 206.205 103.468 202.571 103.468Z" stroke="#FDCD6F" stroke-width="1.5" stroke-miterlimit="10" stroke-linecap="round" stroke-linejoin="round"/>
</g>
<path d="M196.174 97.7695H142.211C138.577 97.7695 135.631 95.1451 135.631 91.9086V65.8292C135.631 62.5926 138.577 59.9683 142.211 59.9683H196.174C199.808 59.9683 202.754 62.5926 202.754 65.8292V91.9086C202.754 95.1451 199.808 97.7695 196.174 97.7695Z" fill="white"/>
<path d="M196.174 97.7695H142.211C138.577 97.7695 135.631 95.1451 135.631 91.9086V65.8292C135.631 62.5926 138.577 59.9683 142.211 59.9683H196.174C199.808 59.9683 202.754 62.5926 202.754 65.8292V91.9086C202.754 95.1451 199.808 97.7695 196.174 97.7695Z" stroke="black" stroke-width="1.5" stroke-miterlimit="10" stroke-linecap="round" stroke-linejoin="round"/>
<path d="M144.159 71.62L149.354 66.9932" stroke="black" stroke-width="1.5" stroke-miterlimit="10" stroke-linecap="round" stroke-linejoin="round"/>
<path d="M144.159 66.9932L149.354 71.62" stroke="black" stroke-width="1.5" stroke-miterlimit="10" stroke-linecap="round" stroke-linejoin="round"/>
<path d="M160.191 86.8787C160.191 85.6812 159.102 84.7109 157.757 84.7109C156.411 84.7109 155.322 85.6812 155.322 86.8787C155.322 88.0761 156.412 89.0472 157.757 89.0472C159.101 89.0472 160.191 88.0761 160.191 86.8787Z" fill="black" stroke="black" stroke-width="1.5" stroke-miterlimit="10" stroke-linecap="round" stroke-linejoin="round"/>
<path d="M185.636 70.858C185.636 69.6606 184.546 68.6895 183.201 68.6895C181.857 68.6895 180.767 69.6606 180.767 70.858C180.767 72.0554 181.857 73.0265 183.201 73.0265C184.546 73.0257 185.636 72.0554 185.636 70.858Z" fill="black" stroke="black" stroke-width="1.5" stroke-miterlimit="10" stroke-linecap="round" stroke-linejoin="round"/>
<path d="M157.756 86.8786C157.756 86.8786 178.95 91.8701 183.201 70.8579" stroke="black" stroke-width="1.5" stroke-miterlimit="10" stroke-linecap="round" stroke-linejoin="round"/>
<path d="M110.379 70.7114C125.86 70.7114 125.111 81.1642 139.094 81.1642" stroke="black" stroke-width="1.5" stroke-miterlimit="10" stroke-linecap="round" stroke-linejoin="round"/>
<path d="M144.288 81.164C144.288 79.8868 143.126 78.8506 141.691 78.8506C140.257 78.8506 139.094 79.886 139.094 81.164C139.094 82.4412 140.256 83.4774 141.691 83.4774C143.126 83.4774 144.288 82.442 144.288 81.164Z" fill="black" stroke="black" stroke-width="1.5" stroke-miterlimit="10" stroke-linecap="round" stroke-linejoin="round"/>
<path d="M110.379 70.7114C110.379 69.4342 109.216 68.3979 107.781 68.3979C106.348 68.3979 105.184 69.4334 105.184 70.7114C105.184 71.9894 106.347 73.0248 107.781 73.0248C109.216 73.0248 110.379 71.9894 110.379 70.7114Z" fill="black" stroke="black" stroke-width="1.5" stroke-miterlimit="10" stroke-linecap="round" stroke-linejoin="round"/>
</svg>
