<svg width="159" height="43" viewBox="0 0 159 43" fill="none" xmlns="http://www.w3.org/2000/svg">
<path d="M158.942 0.370605H0.340332V42.3999H158.942V0.370605Z" fill="#022795" fill-opacity="0.33"/>
<path d="M158.942 39.7383H0.340332V42.3993H158.942V39.7383Z" fill="#F99AAA"/>
<path d="M11.7645 5.52734H6.13013V10.5457H11.7645V5.52734Z" stroke="black" stroke-width="1.5" stroke-miterlimit="10" stroke-linecap="round" stroke-linejoin="round"/>
<path d="M23.0321 10.5459H17.3977" stroke="black" stroke-width="1.5" stroke-miterlimit="10" stroke-linecap="round" stroke-linejoin="round"/>
<path d="M53.1919 11.2412H30.4141V31.5289H53.1919V11.2412Z" fill="#FDCD6F"/>
<path d="M36.1616 26.4102L47.445 16.3604" stroke="black" stroke-width="1.5" stroke-miterlimit="10" stroke-linecap="round" stroke-linejoin="round"/>
<path d="M47.445 26.4102L36.1616 16.3604" stroke="black" stroke-width="1.5" stroke-miterlimit="10" stroke-linecap="round" stroke-linejoin="round"/>
<path d="M84.2783 11.2412H61.5005V31.5289H84.2783V11.2412Z" fill="#FDCD6F"/>
<path d="M67.2478 26.4102L78.5312 16.3604" stroke="black" stroke-width="1.5" stroke-miterlimit="10" stroke-linecap="round" stroke-linejoin="round"/>
<path d="M115.365 11.2412H92.5869V31.5289H115.365V11.2412Z" fill="#FDCD6F"/>
<path d="M109.609 16.8335H99.3877V25.9375H109.609V16.8335Z" stroke="black" stroke-width="1.5" stroke-miterlimit="10" stroke-linecap="round" stroke-linejoin="round"/>
<path d="M146.451 11.2412H123.673V31.5289H146.451V11.2412Z" fill="#FDCD6F"/>
<ellipse cx="129.952" cy="16.8337" rx="0.685448" ry="0.610512" fill="black"/>
<ellipse cx="140.173" cy="16.8337" rx="0.685448" ry="0.610512" fill="black"/>
<ellipse cx="129.952" cy="25.9377" rx="0.685448" ry="0.610512" fill="black"/>
<ellipse cx="140.173" cy="25.9377" rx="0.685448" ry="0.610512" fill="black"/>
</svg>
