<svg width="41" height="18" viewBox="0 0 41 18" fill="none" xmlns="http://www.w3.org/2000/svg">
<path d="M34.6808 13.9806C19.1998 13.9806 19.9492 3.52783 5.96606 3.52783" stroke="black" stroke-width="1.5" stroke-miterlimit="10" stroke-linecap="round" stroke-linejoin="round"/>
<path d="M0.772217 3.52779C0.772217 4.80579 1.93475 5.84122 3.36962 5.84122C4.80357 5.84122 5.96701 4.80579 5.96701 3.52779C5.96701 2.25059 4.80449 1.21436 3.36962 1.21436C1.93475 1.21436 0.772217 2.24978 0.772217 3.52779Z" fill="black" stroke="black" stroke-width="1.5" stroke-miterlimit="10" stroke-linecap="round" stroke-linejoin="round"/>
<path d="M34.6809 13.9804C34.6809 15.2576 35.8434 16.2939 37.2783 16.2939C38.7122 16.2939 39.8757 15.2584 39.8757 13.9804C39.8757 12.7024 38.7131 11.667 37.2783 11.667C35.8443 11.667 34.6809 12.7024 34.6809 13.9804Z" fill="black" stroke="black" stroke-width="1.5" stroke-miterlimit="10" stroke-linecap="round" stroke-linejoin="round"/>
</svg>
