<svg width="349" height="210" viewBox="0 0 349 210" fill="none" xmlns="http://www.w3.org/2000/svg">
<path d="M19.0211 1.03564H336.739C342.796 1.03564 347.706 5.40935 347.706 10.8038V198.636C347.706 204.03 342.796 208.404 336.739 208.404H19.0211C12.9645 208.404 8.05396 204.03 8.05396 198.636V10.8038C8.05396 5.40935 12.9636 1.03564 19.0211 1.03564Z" fill="black" stroke="black" stroke-width="1.5" stroke-miterlimit="10" stroke-linecap="round" stroke-linejoin="round"/>
<path d="M11.8905 1.03564H329.608C335.665 1.03564 340.575 5.40935 340.575 10.8038V198.636C340.575 204.03 335.665 208.404 329.608 208.404H11.8905C5.83389 208.404 0.92334 204.03 0.92334 198.636V10.8038C0.92334 5.40935 5.83297 1.03564 11.8905 1.03564Z" fill="white" stroke="black" stroke-width="1.5" stroke-miterlimit="10" stroke-linecap="round" stroke-linejoin="round"/>
<path d="M11.8905 208.405H329.608C335.666 208.405 340.575 204.032 340.575 198.636V188.68H0.92334V198.636C0.92334 204.031 5.83297 208.405 11.8905 208.405Z" fill="#F4DC90" stroke="black" stroke-width="1.5" stroke-miterlimit="10" stroke-linecap="round" stroke-linejoin="round"/>
<path d="M176.155 198.542C176.155 195.883 173.735 193.727 170.749 193.727C167.764 193.727 165.344 195.883 165.344 198.542C165.344 201.201 167.764 203.357 170.749 203.357C173.735 203.357 176.155 201.201 176.155 198.542Z" fill="#D0D0D6" stroke="black" stroke-width="1.5" stroke-miterlimit="10" stroke-linecap="round" stroke-linejoin="round"/>
<path d="M329.607 1.03564H11.8905C5.83389 1.03564 0.92334 5.40935 0.92334 10.8038H340.575C340.574 5.40935 335.665 1.03564 329.607 1.03564Z" fill="#F4DC90" stroke="black" stroke-width="1.5" stroke-miterlimit="10" stroke-linecap="round" stroke-linejoin="round"/>
</svg>
