<svg width="41" height="18" viewBox="0 0 41 18" fill="none" xmlns="http://www.w3.org/2000/svg">
<path d="M34.8329 14.0373C19.3519 14.0373 20.1013 3.58447 6.11816 3.58447" stroke="black" stroke-width="1.5" stroke-miterlimit="10" stroke-linecap="round" stroke-linejoin="round"/>
<path d="M0.92334 3.58443C0.92334 4.86162 2.08585 5.89787 3.52072 5.89787C4.95468 5.89787 6.11812 4.86243 6.11812 3.58443C6.11812 2.30642 4.9556 1.271 3.52072 1.271C2.08585 1.27181 0.92334 2.30723 0.92334 3.58443Z" fill="black" stroke="black" stroke-width="1.5" stroke-miterlimit="10" stroke-linecap="round" stroke-linejoin="round"/>
<path d="M34.8328 14.0371C34.8328 15.3143 35.9953 16.3505 37.4302 16.3505C38.865 16.3505 40.0275 15.3151 40.0275 14.0371C40.0275 12.7591 38.865 11.7236 37.4302 11.7236C35.9953 11.7236 34.8328 12.7599 34.8328 14.0371Z" fill="black" stroke="black" stroke-width="1.5" stroke-miterlimit="10" stroke-linecap="round" stroke-linejoin="round"/>
</svg>
