<svg width="73" height="86" viewBox="0 0 73 86" fill="none" xmlns="http://www.w3.org/2000/svg">
<g opacity="0.45">
<path d="M64.8954 84.6403H14.4392C10.8045 84.6403 7.85889 82.0159 7.85889 78.7794V13.1925C7.85889 9.95511 10.8054 7.33154 14.4392 7.33154H64.8954C68.5301 7.33154 71.4757 9.95511 71.4757 13.1925V78.7794C71.4748 82.0159 68.5292 84.6403 64.8954 84.6403Z" fill="#FDCD6F"/>
<path d="M64.8954 84.6403H14.4392C10.8045 84.6403 7.85889 82.0159 7.85889 78.7793V13.1925C7.85889 9.95511 10.8054 7.33154 14.4392 7.33154H64.8954C68.5301 7.33154 71.4757 9.95511 71.4757 13.1925V78.7793C71.4748 82.0159 68.5292 84.6403 64.8954 84.6403Z" stroke="#FDCD6F" stroke-width="1.5" stroke-miterlimit="10" stroke-linecap="round" stroke-linejoin="round"/>
</g>
<path d="M58.4987 78.942H8.04245C4.40775 78.942 1.46216 76.3176 1.46216 73.0811V7.49421C1.46216 4.25687 4.40867 1.6333 8.04245 1.6333H58.4987C62.1334 1.6333 65.079 4.25687 65.079 7.49421V73.0811C65.0781 76.3176 62.1325 78.942 58.4987 78.942Z" fill="white"/>
<path d="M58.4987 78.942H8.04245C4.40775 78.942 1.46216 76.3176 1.46216 73.0811V7.49421C1.46216 4.25687 4.40867 1.6333 8.04245 1.6333H58.4987C62.1334 1.6333 65.079 4.25687 65.079 7.49421V73.0811C65.0781 76.3176 62.1325 78.942 58.4987 78.942Z" stroke="black" stroke-width="1.5" stroke-miterlimit="10" stroke-linecap="round" stroke-linejoin="round"/>
</svg>
