<svg width="78" height="78" viewBox="0 0 78 78" fill="none" xmlns="http://www.w3.org/2000/svg">
<path fill-rule="evenodd" clip-rule="evenodd" d="M35.0827 9.00998H57.077C57.854 9.00998 58.4833 9.63928 58.4833 10.4162C58.4833 11.193 57.854 11.8225 57.077 11.8225H35.0827C34.306 11.8225 33.6765 11.1932 33.6765 10.4162C33.6765 9.63928 34.306 9.00998 35.0827 9.00998ZM36.5598 71.8609L34.9386 74.1633C33.8894 75.6559 35.2575 76.9633 36.3909 77.0655C36.9987 77.1198 37.5163 76.8505 37.9272 76.2655L39.546 73.9629C40.5321 72.56 39.3384 71.6143 39.0897 71.4389C38.8392 71.2627 37.546 70.4596 36.5598 71.8609ZM33.1402 65.483C33.1402 65.2763 34.271 64.074 35.67 65.0629C35.918 65.2392 37.1134 66.1849 36.1272 67.5879L31.6128 74.0035C30.6267 75.4064 29.3335 74.6008 29.0838 74.4252C28.8342 74.2498 27.6407 73.3041 28.6251 71.9028L33.1402 65.483ZM27.2519 62.6162L23.0628 68.5714C22.0767 69.9743 23.2704 70.9215 23.52 71.0963C23.7696 71.2717 25.0637 72.0766 26.0499 70.6737L31.5256 62.8906C32.5118 61.4877 31.318 60.542 31.0684 60.3666C30.8188 60.1903 29.5247 59.3854 28.5386 60.7883L27.2519 62.6162ZM24.9526 60.9975L21.7184 65.5941C20.7323 66.993 19.4407 66.1897 19.1902 66.0143C18.9406 65.838 17.7477 64.8922 18.7338 63.4893L21.9631 58.8983C22.9493 57.4978 24.2425 58.301 24.4921 58.4764C24.7417 58.6506 25.9354 59.5963 24.9526 60.9975ZM57.4263 35.2557L68.3407 54.1592C68.7211 54.8145 69.5751 55.0471 70.2339 54.6658L76.4536 51.0765C77.1159 50.6926 77.3423 49.8433 76.9617 49.1809L66.0473 30.2792C65.6643 29.6168 64.8149 29.3902 64.1534 29.7708L57.9347 33.361C57.2744 33.7433 57.0482 34.5985 57.4263 35.2557ZM30.103 43.2944C35.2096 38.2635 36.4224 37.0698 41.3725 38.158C44.7616 38.9051 49.8575 39.6664 55.7641 37.9998L64.3282 52.8305L60.2479 54.9139L43.5176 45.2294C40.594 43.5422 37.836 44.8521 35.4016 46.007C34.8094 46.2891 34.2738 46.4407 33.9864 46.9824C33.0888 48.6727 31.9726 51.7373 30.6921 52.4285C29.3897 53.1313 28.5263 53.1559 28.2891 53.0068C28.1879 52.9433 28.0938 52.6633 28.117 52.1871L28.463 44.9024C29.0519 44.3299 29.6038 43.7844 30.103 43.2944ZM22.2069 38.0476L28.971 40.4629L26.1059 43.2712C25.849 43.5201 25.697 43.8579 25.6809 44.2153L25.3077 52.0535C25.2114 54.0817 26.1958 55.0118 26.7913 55.3865C28.0829 56.2004 29.9431 56.0283 32.0282 54.903C33.7985 53.9481 34.8233 51.7602 35.727 49.8317C35.8998 49.4563 36.0772 49.0831 36.2591 48.7121C36.3768 48.6569 36.493 48.6026 36.6092 48.5465C38.9998 47.4129 40.546 46.7606 42.1089 47.6643L59.4991 57.7293C60.9795 58.5928 60.2899 59.951 60.1375 60.2131C59.9827 60.4768 59.144 61.7479 57.662 60.8887L51.9795 57.5787C51.3082 57.1883 50.4465 57.4147 50.056 58.0862C49.6638 58.7575 49.8928 59.6176 50.5643 60.0098L56.2477 63.3173V63.3197L57.7346 64.1839C58.3534 64.5447 58.6662 65.0364 58.6622 65.6469C58.6569 66.796 57.4665 68.2562 55.8959 67.3414L48.3147 62.9275C47.6449 62.5354 46.7833 62.7635 46.3936 63.4334C46.0007 64.1047 46.2295 64.9664 46.8995 65.357L52.6405 68.7H52.6421C54.1207 69.565 53.4296 70.9201 53.2763 71.1838C53.1239 71.4475 52.2836 72.7186 50.8016 71.8551L44.6512 68.275C43.9815 67.8846 43.1198 68.111 42.7301 68.7825C42.3379 69.4547 42.5645 70.3155 43.2358 70.706L47.9207 73.4319C49.3987 74.2969 48.7082 75.652 48.555 75.9157C48.4017 76.18 47.5599 77.4504 46.0796 76.5879L42.4467 74.4732C43.2731 72.3494 42.3133 70.2678 40.7062 69.1384C40.1695 68.7598 39.5634 68.4908 38.9227 68.3467C39.9276 66.1389 38.9557 63.9378 37.2876 62.7639C36.5403 62.2367 35.6458 61.9112 34.7298 61.866C34.7463 60.3174 33.9003 58.9201 32.6875 58.066C31.241 57.0477 29.2424 56.7842 27.6039 57.8352C27.2424 57.1762 26.7233 56.6061 26.1096 56.1761C24.224 54.8506 21.4041 54.8045 19.6618 57.2816L18.2383 59.3066L13.4135 53.2822L22.2069 38.0476ZM20.0643 33.3611L13.8447 29.771C13.1879 29.3897 12.3368 29.6123 11.9517 30.2793L1.03971 49.1836C0.656679 49.8434 0.884843 50.6928 1.54543 51.0765L7.7651 54.6658C8.42269 55.0464 9.27998 54.8154 9.65809 54.1592L20.5725 35.2557C20.952 34.5971 20.7239 33.7438 20.0643 33.3611ZM24.072 13.4147C23.5258 13.9658 22.6339 13.9668 22.0842 13.4147L19.9292 11.2596C19.3788 10.7117 19.3788 9.82051 19.9292 9.27172C20.0595 9.14087 20.2144 9.03704 20.3849 8.9662C20.5555 8.89535 20.7383 8.85888 20.923 8.85888C21.1077 8.85888 21.2906 8.89535 21.4611 8.9662C21.6317 9.03704 21.7866 9.14087 21.9169 9.27172L23.0785 10.4317L26.3942 7.11682C26.9446 6.56645 27.8342 6.56645 28.382 7.11682C28.9323 7.66543 28.9323 8.55682 28.382 9.10455L24.072 13.4147ZM13.6445 0.927734V26.8029C14.2108 26.8692 14.7576 27.0503 15.2516 27.335L21.4704 30.9259C23.0778 31.854 23.8733 33.7268 23.4624 35.5087L31.2595 38.293C34.5489 35.3547 36.9741 34.31 41.9771 35.4122C46.6685 36.4435 50.603 36.4542 54.5192 35.4245C54.1497 33.6637 54.9492 31.8376 56.5284 30.9259L62.7472 27.335C63.2417 27.05 63.7892 26.8689 64.3561 26.8029V0.927734H13.6445ZM28.3821 22.2655C28.9325 22.8141 28.9325 23.7055 28.3821 24.2532L24.0721 28.5658C23.5241 29.1141 22.6323 29.1137 22.0844 28.5658L19.9293 26.4107C19.7985 26.2802 19.6947 26.1251 19.6239 25.9543C19.553 25.7835 19.5166 25.6005 19.5166 25.4156C19.5166 25.2308 19.553 25.0477 19.6239 24.877C19.6947 24.7062 19.7985 24.5511 19.9293 24.4206C20.4779 23.8728 21.3685 23.8728 21.9171 24.4206L23.0786 25.583L26.3944 22.2656C26.9446 21.7176 27.8342 21.7176 28.3821 22.2655ZM35.0827 24.0094H57.077C57.854 24.0094 58.4833 24.6387 58.4833 25.4156C58.4833 26.1924 57.854 26.8219 57.077 26.8219H35.0827C34.306 26.8219 33.6765 26.1926 33.6765 25.4156C33.6765 25.0427 33.8246 24.685 34.0884 24.4213C34.3521 24.1576 34.7098 24.0094 35.0827 24.0094Z" fill="#FBAC0F"/>
</svg>
