<svg width="112" height="162" viewBox="0 0 112 162" fill="none" xmlns="http://www.w3.org/2000/svg">
<path d="M70.98 53.2388C63.4026 39.3232 65.2707 17.4253 76.0267 17.6402C86.7828 17.8551 76.1775 41.1767 90.3983 51.1989L70.98 53.2388Z" fill="#022795" fill-opacity="0.33"/>
<path d="M33.0321 80.7535C33.0321 80.7535 -9.27007 12.2727 31.2243 1.64575C65.2682 -7.28808 58.1012 52.2588 94.9189 65.4345L33.0321 80.7535Z" fill="#6F84BE"/>
<path d="M34.8394 19.6792C34.8394 19.6792 39.6941 50.1657 61.8524 73.6192" stroke="black" stroke-width="1.5" stroke-miterlimit="10" stroke-linecap="round" stroke-linejoin="round"/>
<path d="M10.2537 158.102C10.2537 158.102 30.7586 163.242 48.3463 160.214" stroke="black" stroke-width="1.5" stroke-miterlimit="10" stroke-linecap="round" stroke-linejoin="round"/>
<path d="M1.57715 61.3198C1.57715 61.3198 13.5085 65.6886 19.2937 76.6583" stroke="black" stroke-width="1.5" stroke-miterlimit="10" stroke-linecap="round" stroke-linejoin="round"/>
<path d="M111.069 29.6626C111.069 29.6626 105.588 38.1788 111.069 52.9199" stroke="black" stroke-width="1.5" stroke-miterlimit="10" stroke-linecap="round" stroke-linejoin="round"/>
</svg>
