<svg width="93" height="100" viewBox="0 0 93 100" fill="none" xmlns="http://www.w3.org/2000/svg">
<g opacity="0.45">
<path d="M64.4723 98.3563H14.8614C10.9937 98.3563 7.85889 95.5634 7.85889 92.1185V13.6318C7.85889 10.1869 10.9946 7.39404 14.8614 7.39404H64.4723C68.34 7.39404 71.4748 10.1869 71.4748 13.6318V92.1185C71.4748 95.5642 68.34 98.3563 64.4723 98.3563Z" fill="#FDCD6F"/>
<path d="M64.4723 98.3563H14.8614C10.9937 98.3563 7.85889 95.5634 7.85889 92.1185V13.6318C7.85889 10.1869 10.9946 7.39404 14.8614 7.39404H64.4723C68.34 7.39404 71.4748 10.1869 71.4748 13.6318V92.1185C71.4748 95.5642 68.34 98.3563 64.4723 98.3563Z" stroke="#FDCD6F" stroke-width="1.5" stroke-miterlimit="10" stroke-linecap="round" stroke-linejoin="round"/>
</g>
<path d="M58.0756 92.658H8.46469C4.59694 92.658 1.46216 89.8651 1.46216 86.4202V7.9336C1.46216 4.48869 4.59785 1.6958 8.46469 1.6958H58.0756C61.9433 1.6958 65.0781 4.48869 65.0781 7.9336V86.4202C65.0781 89.866 61.9433 92.658 58.0756 92.658Z" fill="white"/>
<path d="M58.0755 92.658H8.46469C4.59694 92.658 1.46216 89.8651 1.46216 86.4202V7.9336C1.46216 4.48869 4.59785 1.6958 8.46469 1.6958H58.0755C61.9433 1.6958 65.0781 4.48869 65.0781 7.9336V86.4202C65.0781 89.866 61.9433 92.658 58.0755 92.658Z" stroke="black" stroke-width="1.5" stroke-miterlimit="10" stroke-linecap="round" stroke-linejoin="round"/>
<path d="M9.99121 13.3495L15.1851 8.72266" stroke="black" stroke-width="1.5" stroke-miterlimit="10" stroke-linecap="round" stroke-linejoin="round"/>
<path d="M9.99121 8.72266L15.1851 13.3495" stroke="black" stroke-width="1.5" stroke-miterlimit="10" stroke-linecap="round" stroke-linejoin="round"/>
<path d="M54.5795 35.7681C54.5712 35.6053 54.4899 35.4523 54.3537 35.3432C54.2176 35.2341 54.0403 35.1739 53.8556 35.1877C40.6887 35.8812 33.9356 25.4 33.868 25.2941C33.6249 24.9091 32.9148 24.9091 32.6717 25.2941C32.6049 25.4 25.84 35.8755 12.684 35.1877C12.5021 35.1755 12.3221 35.2349 12.1859 35.3432C12.0497 35.4531 11.9684 35.6053 11.9602 35.7681C11.9455 36.0481 10.7474 63.7906 33.1643 66.8977C33.199 66.9026 33.2346 66.905 33.2694 66.905C33.305 66.905 33.3397 66.9026 33.3745 66.8977C55.7913 63.7906 54.5941 36.0481 54.5795 35.7681Z" fill="#FDCD6F"/>
<path d="M86.8329 14.4883C71.3519 14.4883 72.1013 24.9411 58.1182 24.9411" stroke="black" stroke-width="1.5" stroke-miterlimit="10" stroke-linecap="round" stroke-linejoin="round"/>
<path d="M52.9233 24.9404C52.9233 23.6632 54.0859 22.627 55.5207 22.627C56.9547 22.627 58.1181 23.6624 58.1181 24.9404C58.1181 26.2184 56.9556 27.2538 55.5207 27.2538C54.0859 27.2538 52.9233 26.2184 52.9233 24.9404Z" fill="black" stroke="black" stroke-width="1.5" stroke-miterlimit="10" stroke-linecap="round" stroke-linejoin="round"/>
<path d="M86.8328 14.4882C86.8328 13.2102 87.9953 12.1748 89.4302 12.1748C90.865 12.1748 92.0275 13.2102 92.0275 14.4882C92.0275 15.7654 90.865 16.8017 89.4302 16.8017C87.9953 16.8009 86.8328 15.7654 86.8328 14.4882Z" fill="black" stroke="black" stroke-width="1.5" stroke-miterlimit="10" stroke-linecap="round" stroke-linejoin="round"/>
</svg>
