<svg width="524" height="341" viewBox="0 0 524 341" fill="none" xmlns="http://www.w3.org/2000/svg">
<path d="M73.6914 317.842C186.198 366.371 374.001 330.672 443.857 281.376C534.639 217.312 556.536 66.9687 462.418 16.1977C408.827 -12.7113 322.194 -5.96798 252.638 78.0401C188.061 156.034 141.125 118.246 68.2754 141.106C-23.9173 170.036 -22.4568 276.369 73.6914 317.842Z" fill="#FDCD6F"/>
<path d="M123.083 71.9897H440.801C446.858 71.9897 451.768 76.3635 451.768 81.7579V269.59C451.768 274.985 446.858 279.358 440.801 279.358H123.083C117.026 279.358 112.116 274.985 112.116 269.59V81.7579C112.116 76.3635 117.025 71.9897 123.083 71.9897Z" fill="white"/>
</svg>
