<svg width="90" height="34" viewBox="0 0 90 34" fill="none" xmlns="http://www.w3.org/2000/svg">
<path d="M3.40991 31.3293L19.9393 2.81592L36.0893 24.494L55.1502 7.38661L67.3905 20.1569L86.7942 28.4306" stroke="black" stroke-width="1.5" stroke-miterlimit="10" stroke-linecap="round" stroke-linejoin="round"/>
<path d="M5.42996 31.3293C5.42996 30.3353 4.52517 29.5303 3.41017 29.5303C2.29426 29.5303 1.39038 30.3362 1.39038 31.3293C1.39038 32.3232 2.29518 33.1282 3.41017 33.1282C4.52608 33.1282 5.42996 32.3232 5.42996 31.3293Z" fill="white" stroke="black" stroke-width="1.5" stroke-miterlimit="10" stroke-linecap="round" stroke-linejoin="round"/>
<path d="M57.1697 7.38686C57.1697 6.39295 56.2649 5.58789 55.1499 5.58789C54.034 5.58789 53.1301 6.39376 53.1301 7.38686C53.1301 8.38077 54.0349 9.18584 55.1499 9.18584C56.2649 9.18665 57.1697 8.38077 57.1697 7.38686Z" fill="white" stroke="black" stroke-width="1.5" stroke-miterlimit="10" stroke-linecap="round" stroke-linejoin="round"/>
<path d="M36.0896 26.2933C37.2051 26.2933 38.1094 25.4878 38.1094 24.4943C38.1094 23.5007 37.2051 22.6953 36.0896 22.6953C34.9741 22.6953 34.0698 23.5007 34.0698 24.4943C34.0698 25.4878 34.9741 26.2933 36.0896 26.2933Z" fill="white" stroke="black" stroke-width="1.5" stroke-miterlimit="10" stroke-linecap="round" stroke-linejoin="round"/>
<path d="M69.4112 20.1569C69.4112 19.163 68.5064 18.3579 67.3914 18.3579C66.2755 18.3579 65.3716 19.1638 65.3716 20.1569C65.3716 21.1508 66.2764 21.9559 67.3914 21.9559C68.5064 21.9567 69.4112 21.1508 69.4112 20.1569Z" fill="white" stroke="black" stroke-width="1.5" stroke-miterlimit="10" stroke-linecap="round" stroke-linejoin="round"/>
<path d="M21.959 2.81607C21.959 1.82216 21.0542 1.01709 19.9392 1.01709C18.8233 1.01709 17.9194 1.82297 17.9194 2.81607C17.9194 3.80917 18.8242 4.61504 19.9392 4.61504C21.0542 4.61504 21.959 3.80917 21.959 2.81607Z" fill="white" stroke="black" stroke-width="1.5" stroke-miterlimit="10" stroke-linecap="round" stroke-linejoin="round"/>
<path d="M88.8147 28.4308C88.8147 27.4369 87.9099 26.6318 86.795 26.6318C85.679 26.6318 84.7751 27.4377 84.7751 28.4308C84.7751 29.4247 85.68 30.2298 86.795 30.2298C87.9099 30.2306 88.8147 29.4247 88.8147 28.4308Z" fill="white" stroke="black" stroke-width="1.5" stroke-miterlimit="10" stroke-linecap="round" stroke-linejoin="round"/>
</svg>
