<svg width="76" height="46" viewBox="0 0 76 46" fill="none" xmlns="http://www.w3.org/2000/svg">
<g opacity="0.45">
<path d="M68.317 44.6738H14.354C10.7193 44.6738 7.77368 42.0494 7.77368 38.8129V12.7335C7.77368 9.49613 10.7193 6.87256 14.354 6.87256H68.317C71.9507 6.87256 74.8973 9.49613 74.8973 12.7335V38.8129C74.8973 42.0494 71.9517 44.6738 68.317 44.6738Z" fill="#FDCD6F"/>
<path d="M68.317 44.6738H14.354C10.7193 44.6738 7.77368 42.0494 7.77368 38.8129V12.7335C7.77368 9.49613 10.7193 6.87256 14.354 6.87256H68.317C71.9507 6.87256 74.8973 9.49613 74.8973 12.7335V38.8129C74.8973 42.0494 71.9517 44.6738 68.317 44.6738Z" stroke="#FDCD6F" stroke-width="1.5" stroke-miterlimit="10" stroke-linecap="round" stroke-linejoin="round"/>
</g>
<path d="M61.9197 38.9756H7.95676C4.32206 38.9756 1.37646 36.3512 1.37646 33.1147V7.03523C1.37646 3.79789 4.32206 1.17432 7.95676 1.17432H61.9197C65.5535 1.17432 68.5 3.79789 68.5 7.03523V33.1147C68.5 36.3512 65.5544 38.9756 61.9197 38.9756Z" fill="white"/>
<path d="M61.9197 38.9756H7.95676C4.32206 38.9756 1.37646 36.3512 1.37646 33.1147V7.03523C1.37646 3.79789 4.32206 1.17432 7.95676 1.17432H61.9197C65.5535 1.17432 68.5 3.79789 68.5 7.03523V33.1147C68.5 36.3512 65.5544 38.9756 61.9197 38.9756Z" stroke="black" stroke-width="1.5" stroke-miterlimit="10" stroke-linecap="round" stroke-linejoin="round"/>
</svg>
