<svg width="47" height="44" viewBox="0 0 47 44" fill="none" xmlns="http://www.w3.org/2000/svg">
<path d="M40.9468 19.201C42.7375 18.8621 44.4388 18.6504 46.3192 18.5233V26.4009C44.4388 26.2315 42.7375 26.0621 40.9468 25.7233L38.3054 31.7374C39.8275 32.6692 41.1707 33.6856 42.6033 34.8291L36.6937 40.4197C35.4849 39.0644 34.4104 37.7515 33.4255 36.3538L27.0683 38.8526C27.4264 40.5467 27.6503 42.1561 27.7846 43.9349H19.4574C19.6365 42.1561 19.8156 40.5467 20.1737 38.8526L13.8164 36.3538C12.8315 37.7938 11.7571 39.0644 10.5483 40.4197L4.63867 34.8291C6.0713 33.6856 7.45912 32.6692 8.93651 31.7374L6.29512 25.7233C4.50434 26.0621 2.80317 26.2738 0.922852 26.4009V18.5233C2.80317 18.6927 4.50434 18.8621 6.29512 19.201L8.93651 13.1869C7.41435 12.2551 6.0713 11.2387 4.63867 10.0951L10.5483 4.50454C11.7571 5.85983 12.8315 7.1728 13.8164 8.57044L20.1737 6.07157C19.8156 4.37746 19.5917 2.76807 19.4574 0.989258H27.7846C27.6055 2.76807 27.4264 4.37746 27.0683 6.07157L33.4255 8.57044C34.4104 7.13044 35.4849 5.85983 36.6937 4.50454L42.6033 10.0951C41.1707 11.2387 39.7828 12.2551 38.3054 13.1869L40.9468 19.201ZM23.6658 12.9328C18.1143 12.9328 13.5926 17.2104 13.5926 22.4621C13.5926 27.7139 18.1143 31.9915 23.6658 31.9915C29.2172 31.9915 33.7389 27.7139 33.7389 22.4621C33.7389 17.168 29.2172 12.9328 23.6658 12.9328Z" fill="#0E1F51" fill-opacity="0.960784"/>
</svg>
